<?xml version="1.0" encoding="UTF-8"?>
<svg xmlns="http://www.w3.org/2000/svg" version="1.1" viewBox="0 0 20 20" fill="currentColor">
  <!-- Generator: Adobe Illustrator 28.6.0, SVG Export Plug-In . SVG Version: 1.2.0 Build 709)  -->
  <g>
    <g id="Layer_1">
      <path d="M10.6,2.1c.5-.2.7-.8.6-1.2S10.5,0,9.9,0C4.3.1,0,4.6,0,10s4.6,10,10.3,10,8.1-2.7,9.6-6.6c.2-.4,0-1-.5-1.3s-1-.2-1.4.1c-1.1,1-2.6,1.6-4.2,1.6-3.5,0-6.5-2.8-6.5-6.3s1.3-4.2,3.3-5.3h0ZM13.8,16c.6,0,1.1,0,1.6-.1-1.4,1.2-3.2,1.9-5.1,1.9-4.5,0-8-3.4-8-7.8s1.6-5.3,4-6.7c-.8,1.2-1.1,2.7-1.1,4.2,0,4.7,3.9,8.4,8.7,8.4h-.1Z"/>
    </g>
  </g>
</svg>