<svg width="13" height="14" viewBox="0 0 13 14" fill="none" xmlns="http://www.w3.org/2000/svg">
<path d="M7.42857 0.933333C7.42857 0.417083 7.01362 0 6.5 0C5.98638 0 5.57143 0.417083 5.57143 0.933333V7.07875L4.37009 5.87125C4.00737 5.50667 3.4183 5.50667 3.05558 5.87125C2.69286 6.23583 2.69286 6.82792 3.05558 7.1925L5.84129 9.9925C6.20402 10.3571 6.79308 10.3571 7.1558 9.9925L9.94152 7.1925C10.3042 6.82792 10.3042 6.23583 9.94152 5.87125C9.57879 5.50667 8.98973 5.50667 8.62701 5.87125L7.42857 7.07875V0.933333ZM1.85714 9.33333C0.832812 9.33333 0 10.1704 0 11.2V12.1333C0 13.1629 0.832812 14 1.85714 14H11.1429C12.1672 14 13 13.1629 13 12.1333V11.2C13 10.1704 12.1672 9.33333 11.1429 9.33333H9.78192L8.13951 10.9842C7.23415 11.8942 5.76295 11.8942 4.85759 10.9842L3.21808 9.33333H1.85714ZM10.6786 10.9667C11.0645 10.9667 11.375 11.2788 11.375 11.6667C11.375 12.0546 11.0645 12.3667 10.6786 12.3667C10.2926 12.3667 9.98214 12.0546 9.98214 11.6667C9.98214 11.2788 10.2926 10.9667 10.6786 10.9667Z" fill="currentColor"/>
</svg>