<svg width="611" height="38" viewBox="0 0 611 38" fill="none" xmlns="http://www.w3.org/2000/svg">
<path d="M0 36.8608V0.497157H25.5682V8.4517H9.87216V14.7017H24.0057V22.6562H9.87216V36.8608H0ZM29.1992 36.8608V0.497157H44.8952C47.5941 0.497157 49.9556 0.988397 51.9798 1.97088C54.0039 2.95336 55.5782 4.3679 56.7028 6.21449C57.8273 8.06108 58.3896 10.2746 58.3896 12.8551C58.3896 15.4593 57.8095 17.6551 56.6495 19.4425C55.5013 21.2299 53.8855 22.5793 51.8022 23.4908C49.7307 24.4022 47.31 24.858 44.5401 24.858H35.1651V17.1875H42.5515C43.7115 17.1875 44.6999 17.0455 45.5167 16.7614C46.3453 16.4654 46.9786 15.9979 47.4165 15.3587C47.8664 14.7195 48.0913 13.8849 48.0913 12.8551C48.0913 11.8134 47.8664 10.9671 47.4165 10.3161C46.9786 9.65317 46.3453 9.16785 45.5167 8.86008C44.6999 8.54048 43.7115 8.38068 42.5515 8.38068H39.0714V36.8608H29.1992ZM50.506 20.1705L59.5969 36.8608H48.8725L39.9947 20.1705H50.506ZM97.8249 18.679C97.8249 22.7273 97.0378 26.1423 95.4634 28.924C93.8891 31.6939 91.7643 33.795 89.0891 35.2273C86.4139 36.6477 83.431 37.358 80.1403 37.358C76.8259 37.358 73.8311 36.6418 71.1559 35.2095C68.4925 33.7654 66.3737 31.6584 64.7994 28.8885C63.2369 26.1068 62.4556 22.7036 62.4556 18.679C62.4556 14.6307 63.2369 11.2216 64.7994 8.4517C66.3737 5.66998 68.4925 3.56889 71.1559 2.14843C73.8311 0.716143 76.8259 -2.74181e-06 80.1403 -2.74181e-06C83.431 -2.74181e-06 86.4139 0.716143 89.0891 2.14843C91.7643 3.56889 93.8891 5.66998 95.4634 8.4517C97.0378 11.2216 97.8249 14.6307 97.8249 18.679ZM87.6687 18.679C87.6687 16.5009 87.3787 14.6662 86.7987 13.1747C86.2305 11.6714 85.3841 10.535 84.2596 9.76562C83.1469 8.98437 81.7738 8.59375 80.1403 8.59375C78.5067 8.59375 77.1277 8.98437 76.0032 9.76562C74.8905 10.535 74.0442 11.6714 73.4641 13.1747C72.896 14.6662 72.6119 16.5009 72.6119 18.679C72.6119 20.857 72.896 22.6977 73.4641 24.201C74.0442 25.6925 74.8905 26.8288 76.0032 27.6101C77.1277 28.3795 78.5067 28.7642 80.1403 28.7642C81.7738 28.7642 83.1469 28.3795 84.2596 27.6101C85.3841 26.8288 86.2305 25.6925 86.7987 24.201C87.3787 22.6977 87.6687 20.857 87.6687 18.679ZM133.856 0.497157V36.8608H125.617L112.478 17.7557H112.265V36.8608H102.393V0.497157H110.773L123.699 19.5312H123.983V0.497157H133.856ZM137.531 8.4517V0.497157H169.136V8.4517H158.199V36.8608H148.469V8.4517H137.531ZM190.891 14.9858V22.3722H173.846V14.9858H190.891ZM196.582 36.8608V0.497157H222.789V8.4517H206.454V14.7017H221.44V22.6562H206.454V28.9062H222.718V36.8608H196.582ZM259.149 0.497157V36.8608H250.91L237.771 17.7557H237.558V36.8608H227.686V0.497157H236.066L248.992 19.5312H249.276V0.497157H259.149ZM277.81 36.8608H263.818V0.497157H277.668C281.408 0.497157 284.64 1.22514 287.362 2.68111C290.097 4.12523 292.204 6.20857 293.683 8.93111C295.175 11.6418 295.921 14.8911 295.921 18.679C295.921 22.4669 295.181 25.7221 293.701 28.4446C292.222 31.1553 290.126 33.2386 287.416 34.6946C284.705 36.1387 281.503 36.8608 277.81 36.8608ZM273.691 28.4801H277.455C279.254 28.4801 280.787 28.1901 282.053 27.6101C283.332 27.0301 284.302 26.0298 284.965 24.6094C285.64 23.1889 285.977 21.2121 285.977 18.679C285.977 16.1458 285.634 14.169 284.948 12.7486C284.273 11.3281 283.279 10.3279 281.965 9.74787C280.663 9.16785 279.065 8.87784 277.171 8.87784H273.691V28.4801ZM324.441 36.8608H310.449V0.497157H324.299C328.039 0.497157 331.271 1.22514 333.993 2.68111C336.728 4.12523 338.835 6.20857 340.314 8.93111C341.806 11.6418 342.551 14.8911 342.551 18.679C342.551 22.4669 341.812 25.7221 340.332 28.4446C338.852 31.1553 336.757 33.2386 334.047 34.6946C331.336 36.1387 328.134 36.8608 324.441 36.8608ZM320.321 28.4801H324.086C325.885 28.4801 327.418 28.1901 328.684 27.6101C329.963 27.0301 330.933 26.0298 331.596 24.6094C332.271 23.1889 332.608 21.2121 332.608 18.679C332.608 16.1458 332.265 14.169 331.578 12.7486C330.904 11.3281 329.909 10.3279 328.596 9.74787C327.293 9.16785 325.695 8.87784 323.801 8.87784H320.321V28.4801ZM347.119 36.8608V0.497157H373.327V8.4517H356.991V14.7017H371.977V22.6562H356.991V28.9062H373.256V36.8608H347.119ZM388.166 0.497157L395.623 26.1364H395.907L403.365 0.497157H414.515L402.512 36.8608H389.018L377.015 0.497157H388.166ZM418.018 36.8608V0.497157H444.225V8.4517H427.89V14.7017H442.876V22.6562H427.89V28.9062H444.154V36.8608H418.018ZM449.121 36.8608V0.497157H458.993V28.9062H473.695V36.8608H449.121ZM511.497 18.679C511.497 22.7273 510.71 26.1423 509.135 28.924C507.561 31.6939 505.436 33.795 502.761 35.2273C500.086 36.6477 497.103 37.358 493.812 37.358C490.498 37.358 487.503 36.6418 484.828 35.2095C482.164 33.7654 480.046 31.6584 478.471 28.8885C476.909 26.1068 476.127 22.7036 476.127 18.679C476.127 14.6307 476.909 11.2216 478.471 8.4517C480.046 5.66998 482.164 3.56889 484.828 2.14843C487.503 0.716143 490.498 -2.74181e-06 493.812 -2.74181e-06C497.103 -2.74181e-06 500.086 0.716143 502.761 2.14843C505.436 3.56889 507.561 5.66998 509.135 8.4517C510.71 11.2216 511.497 14.6307 511.497 18.679ZM501.341 18.679C501.341 16.5009 501.051 14.6662 500.471 13.1747C499.902 11.6714 499.056 10.535 497.931 9.76562C496.819 8.98437 495.446 8.59375 493.812 8.59375C492.179 8.59375 490.8 8.98437 489.675 9.76562C488.562 10.535 487.716 11.6714 487.136 13.1747C486.568 14.6662 486.284 16.5009 486.284 18.679C486.284 20.857 486.568 22.6977 487.136 24.201C487.716 25.6925 488.562 26.8288 489.675 27.6101C490.8 28.3795 492.179 28.7642 493.812 28.7642C495.446 28.7642 496.819 28.3795 497.931 27.6101C499.056 26.8288 499.902 25.6925 500.471 24.201C501.051 22.6977 501.341 20.857 501.341 18.679ZM516.064 36.8608V0.497157H531.76C534.459 0.497157 536.821 1.02983 538.845 2.09517C540.869 3.16051 542.443 4.6579 543.568 6.58736C544.693 8.51681 545.255 10.7718 545.255 13.3523C545.255 15.9564 544.675 18.2114 543.515 20.1172C542.367 22.023 540.751 23.4908 538.667 24.5206C536.596 25.5504 534.175 26.0653 531.405 26.0653H522.03V18.3949H529.417C530.577 18.3949 531.565 18.1937 532.382 17.7912C533.211 17.3769 533.844 16.791 534.282 16.0334C534.732 15.2758 534.956 14.3821 534.956 13.3523C534.956 12.3106 534.732 11.4228 534.282 10.6889C533.844 9.94318 533.211 9.375 532.382 8.98437C531.565 8.58191 530.577 8.38068 529.417 8.38068H525.937V36.8608H516.064ZM548.877 36.8608V0.497157H575.084V8.4517H558.749V14.7017H573.735V22.6562H558.749V28.9062H575.013V36.8608H548.877ZM579.98 36.8608V0.497157H595.676C598.375 0.497157 600.737 0.988397 602.761 1.97088C604.785 2.95336 606.359 4.3679 607.484 6.21449C608.609 8.06108 609.171 10.2746 609.171 12.8551C609.171 15.4593 608.591 17.6551 607.431 19.4425C606.283 21.2299 604.667 22.5793 602.583 23.4908C600.512 24.4022 598.091 24.858 595.321 24.858H585.946V17.1875H593.333C594.493 17.1875 595.481 17.0455 596.298 16.7614C597.127 16.4654 597.76 15.9979 598.198 15.3587C598.648 14.7195 598.873 13.8849 598.873 12.8551C598.873 11.8134 598.648 10.9671 598.198 10.3161C597.76 9.65317 597.127 9.16785 596.298 8.86008C595.481 8.54048 594.493 8.38068 593.333 8.38068H589.853V36.8608H579.98ZM601.287 20.1705L610.378 36.8608H599.654L590.776 20.1705H601.287Z" fill="currentColor" fill-opacity="0.1"/>
</svg>
