<svg width="14" height="14" viewBox="0 0 14 14" fill="none" xmlns="http://www.w3.org/2000/svg">
<path d="M9.6226 7.65625H4.38015C4.45979 9.41992 4.85249 11.0441 5.40997 12.2336C5.72303 12.9035 6.06081 13.3766 6.37387 13.6664C6.68144 13.9535 6.8929 14 7.00275 14C7.11259 14 7.32405 13.9535 7.63162 13.6664C7.94468 13.3766 8.28246 12.9008 8.59553 12.2336C9.153 11.0441 9.5457 9.41992 9.62534 7.65625H9.6226ZM4.3774 6.34375H9.61985C9.54296 4.58008 9.15026 2.95586 8.59278 1.76641C8.27972 1.09922 7.94194 0.623437 7.62887 0.333594C7.3213 0.0464843 7.10985 0 7 0C6.89015 0 6.6787 0.0464843 6.37113 0.333594C6.05806 0.623437 5.72028 1.09922 5.40722 1.76641C4.84974 2.95586 4.45704 4.58008 4.3774 6.34375ZM3.05924 6.34375C3.15535 4.00313 3.76226 1.8293 4.64927 0.401953C2.12005 1.29336 0.25814 3.5875 0 6.34375H3.05924ZM0 7.65625C0.25814 10.4125 2.12005 12.7066 4.64927 13.598C3.76226 12.1707 3.15535 9.99687 3.05924 7.65625H0ZM10.9408 7.65625C10.8446 9.99687 10.2377 12.1707 9.35073 13.598C11.88 12.7039 13.7419 10.4125 14 7.65625H10.9408ZM14 6.34375C13.7419 3.5875 11.88 1.29336 9.35073 0.401953C10.2377 1.8293 10.8446 4.00313 10.9408 6.34375H14Z" fill="currentColor"/>
</svg>
