<?xml version="1.0" encoding="UTF-8"?>
<svg xmlns="http://www.w3.org/2000/svg" version="1.1" viewBox="0 0 20 20">
  <!-- Generator: Adobe Illustrator 28.6.0, SVG Export Plug-In . SVG Version: 1.2.0 Build 709)  -->
  <g>
    <g id="Layer_1">
      <g id="_icons">
        <path d="M5,10c0,2.8,2.2,5,5,5s5-2.2,5-5-2.2-5-5-5-5,2.2-5,5ZM10,7c1.7,0,3,1.3,3,3s-1.3,3-3,3-3-1.3-3-3,1.3-3,3-3Z"/>
        <path d="M11,3V1c0-.6-.4-1-1-1s-1,.4-1,1v2c0,.6.4,1,1,1s1-.4,1-1Z"/>
        <path d="M17.1,2.9c-.4-.4-1-.4-1.4,0l-1.4,1.4c-.4.4-.4,1,0,1.4.2.2.5.3.7.3s.5,0,.7-.3l1.4-1.4c.4-.3.4-1,0-1.4Z"/>
        <path d="M19,9h-2c-.6,0-1,.4-1,1s.4,1,1,1h2c.6,0,1-.4,1-1s-.4-1-1-1Z"/>
        <path d="M15.7,14.2c-.4-.4-1-.4-1.4,0s-.4,1,0,1.4l1.4,1.4c.2.2.5.3.7.3s.5-.1.7-.3c.4-.4.4-1,0-1.4l-1.4-1.4Z"/>
        <path d="M9,17v2c0,.6.4,1,1,1s1-.4,1-1v-2c0-.6-.4-1-1-1s-1,.4-1,1Z"/>
        <path d="M2.9,17.1c.2.2.5.3.7.3s.5-.1.7-.3l1.4-1.4c.4-.4.4-1,0-1.4s-1-.4-1.4,0l-1.4,1.4c-.4.3-.4,1,0,1.4Z"/>
        <path d="M0,10c0,.6.4,1,1,1h2c.6,0,1-.4,1-1s-.4-1-1-1H1c-.6,0-1,.4-1,1Z"/>
        <path d="M4.3,2.9c-.4-.4-1-.4-1.4,0s-.4,1,0,1.4l1.4,1.4c.2.3.5.4.8.4s.5-.1.7-.3c.4-.4.4-1,0-1.4l-1.5-1.5Z"/>
      </g>
    </g>
  </g>
</svg>