<svg width="12" height="16" viewBox="0 0 12 16" fill="none" xmlns="http://www.w3.org/2000/svg">
<path d="M0.00312414 5.85942C0.00312414 2.62214 2.68992 0 6.00156 0C9.3132 0 12 2.62214 12 5.85942C12 9.56583 8.24473 14.0085 6.67639 15.7017C6.30773 16.0994 5.69227 16.0994 5.32361 15.7017C3.75527 14.0085 0 9.56583 0 5.85942H0.00312414ZM6.00156 7.9534C7.1044 7.9534 8.00104 7.06175 8.00104 5.96505C8.00104 4.86835 7.1044 3.9767 6.00156 3.9767C4.89872 3.9767 4.00208 4.86835 4.00208 5.96505C4.00208 7.06175 4.89872 7.9534 6.00156 7.9534Z" fill="currentColor"/>
</svg>
