<svg width="50" height="50" viewBox="0 0 50 50" fill="none" xmlns="http://www.w3.org/2000/svg">
<path d="M25 50C38.8071 50 50 38.8071 50 25C50 11.1929 38.8071 0 25 0C11.1929 0 0 11.1929 0 25C0 38.8071 11.1929 50 25 50Z" fill="#1D1D1F"/>
<path d="M30.1807 9C35.0879 9.00021 38.9998 12.9612 39 17.9297C38.9999 19.0375 38.7848 20.2681 38.334 21.3115C37.9371 22.316 37.3627 23.2334 36.6836 23.9873C36.9154 24.2028 37.1254 24.3745 37.3672 24.5898C37.6782 24.8669 38.0114 25.1926 38.2832 25.6631C38.8145 26.583 39 27.86 39 30.0703C38.9998 35.0388 35.0879 38.9998 30.1807 39H20.4688V33.3809H18.8652L16.6846 39H9L20.7881 9H30.1807ZM10.46 37.9971H16.0098L18.1895 32.377H21.46V37.9971H30.1807C34.5406 37.9969 38.0086 34.4847 38.0088 30.0703C38.0088 25.6563 37.2165 25.9564 35.7305 24.4521L35.2842 24L35.7305 23.5479C36.4238 22.8457 37.0187 21.9433 37.415 20.9404C37.7618 20.1505 37.9566 19.2061 38 18.3105L38.0088 17.9297C38.0086 13.6532 34.7543 10.2229 30.5869 10.0127L30.1807 10.0029H21.46L10.46 37.9971ZM29.8877 26.7656C30.8963 26.8349 31.7913 27.4172 32.1631 28.2637C32.3612 28.665 32.46 29.1671 32.46 29.5684L32.4463 29.8477C32.3145 31.1849 31.2466 32.2999 29.833 32.373L29.6855 32.377H26.9102V26.7588H29.6855L29.8877 26.7656ZM21.46 26.8594H20.3701L21.46 24.0498V26.8594ZM29.8877 15.6299C30.8963 15.6992 31.7914 16.2804 32.1631 17.127C32.3611 17.5282 32.4599 18.0304 32.46 18.4316L32.4463 18.7109C32.3144 20.0481 31.2465 21.1642 29.833 21.2373L29.6855 21.2412H26.9102V15.6221H29.6855L29.8877 15.6299Z" fill="#F7F7F7"/>
</svg>
