<svg width="30" height="30" viewBox="0 0 30 30" fill="none" xmlns="http://www.w3.org/2000/svg">
<rect width="30" height="30" rx="4" fill="#1D1D1F"/>
<path d="M19.1729 3.50879C22.7257 3.68858 25.5 6.61984 25.5 10.251C25.5 11.0788 25.3402 12.002 24.998 12.8008C24.7634 13.3946 24.4462 13.9485 24.0723 14.4355C24.1085 14.467 24.147 14.5013 24.1895 14.5391C24.421 14.7453 24.7006 15.0159 24.9307 15.4141C25.3755 16.1842 25.5 17.1998 25.5 18.749C25.5 22.4971 22.5441 25.4996 18.8271 25.5H12.0283C11.7523 25.4999 11.5283 25.2761 11.5283 25V21.5664H11.248L9.8457 25.1807C9.77104 25.373 9.58523 25.5 9.37891 25.5H4C3.83471 25.4999 3.68 25.4178 3.58691 25.2812C3.49404 25.1448 3.47395 24.9711 3.53418 24.8174L11.7861 3.81738C11.8613 3.62612 12.0465 3.50009 12.252 3.5H18.8271L19.1729 3.50879ZM5.75586 23.7979H8.56445L9.9668 20.1836L10 20.1143C10.0882 19.9614 10.2523 19.8644 10.4326 19.8643H12.7217C12.9978 19.8643 13.2217 20.0881 13.2217 20.3643V23.7979H18.8262C21.5962 23.7977 23.8066 21.5689 23.8066 18.749C23.8066 17.2053 23.6616 16.6075 23.4658 16.2686C23.3712 16.1048 23.2505 15.9775 23.0664 15.8135C22.8898 15.6562 22.63 15.4459 22.3555 15.168L22.043 14.8516C21.8508 14.6568 21.8508 14.3432 22.043 14.1484L22.3555 13.832C22.7926 13.3893 23.1727 12.8144 23.4258 12.1738L23.4326 12.1572C23.6467 11.6696 23.7728 11.0704 23.8008 10.4932L23.8066 10.251L23.7998 9.99609C23.6754 7.38455 21.6487 5.33819 19.085 5.20898V5.20801L18.8145 5.20215H13.0625L5.75586 23.7979ZM18.6387 15.9365L18.6553 15.9375C19.5137 15.9965 20.3124 16.4902 20.6621 17.2637L20.7246 17.4004C20.8588 17.7267 20.9218 18.0928 20.9219 18.3975C20.9219 18.4055 20.9223 18.4139 20.9219 18.4219L20.9121 18.6172C20.9117 18.6255 20.911 18.6343 20.9102 18.6426C20.7951 19.8091 19.8605 20.7958 18.6084 20.8604L18.5957 20.8613L18.4932 20.8643H16.5371C16.2611 20.8641 16.0371 20.6403 16.0371 20.3643V16.4316C16.0371 16.1556 16.2611 15.9318 16.5371 15.9316H18.4971L18.6387 15.9365ZM12.8135 14.0439C13.05 14.0882 13.2217 14.2945 13.2217 14.5352V16.501C13.2217 16.7771 12.9978 17.001 12.7217 17.001H11.959C11.7943 17.0009 11.6401 16.92 11.5469 16.7842C11.4537 16.6481 11.4335 16.4741 11.4932 16.3203L12.2559 14.3545C12.3428 14.1302 12.5771 13.9999 12.8135 14.0439ZM18.499 8.13574L18.6406 8.14062C18.6454 8.14081 18.6505 8.14128 18.6553 8.1416C19.5204 8.20105 20.3256 8.70169 20.6709 9.48633C20.8414 9.8404 20.9219 10.2605 20.9219 10.6025C20.9219 10.6103 20.9222 10.6182 20.9219 10.626L20.9121 10.8223C20.9117 10.8304 20.911 10.8386 20.9102 10.8467C20.7951 12.013 19.8605 13.0009 18.6084 13.0654H18.5957L18.4932 13.0684H16.5371C16.2611 13.0682 16.0371 12.8444 16.0371 12.5684V8.63477C16.0373 8.35886 16.2612 8.13488 16.5371 8.13477H18.4795C18.4858 8.13477 18.4927 8.13549 18.499 8.13574Z" fill="#E9BF70"/>
</svg>
