<svg width="100" height="100" viewBox="0 0 100 100" fill="none" xmlns="http://www.w3.org/2000/svg">
<path d="M82.5146 67.6465L82.5488 67.6807C83.1124 68.2355 83.86 68.543 84.6455 68.543C85.431 68.5429 86.2125 68.2227 86.7803 67.6465L94.0352 60.2627C89.5303 79.5761 72.5991 94.1119 52.1328 94.9873C51.7785 95.0044 51.4198 95.0123 51.0654 95.0166C50.8094 95.0251 50.549 95.0303 50.293 95.0303V99.1465C50.2928 99.6161 49.9081 100 49.4385 100C49.2165 100 48.9988 99.9105 48.8408 99.7568L46.0566 97.0244L44.8438 95.8281L43.5928 94.5986L34.084 85.251C33.7467 84.9222 33.7421 84.3803 34.0752 84.043C34.0752 84.0424 34.0761 84.0381 34.084 84.0342L44.6221 73.6758L45.54 72.7783L46.4707 71.8604L48.8408 69.5332C49.0073 69.371 49.2208 69.2862 49.4385 69.2861C49.6562 69.2861 49.878 69.3713 50.0488 69.542C50.2025 69.7042 50.2929 69.9176 50.293 70.1396V74.252C50.5533 74.2519 50.8094 74.2472 51.0654 74.2344C51.4241 74.2216 51.7827 74.2047 52.1328 74.1748C61.8598 73.4019 69.9643 66.8904 73.0645 58.0303L82.5146 67.6465ZM15.3555 33.6738C15.5774 33.6739 15.7867 33.7548 15.9531 33.917C15.9573 33.9212 15.9619 33.9255 15.9619 33.9297L26.3252 44.4678L27.2217 45.3818L28.1309 46.3086L30.4668 48.6826C30.7956 49.02 30.7914 49.5628 30.4541 49.8916C30.2962 50.0494 30.0783 50.1347 29.8564 50.1348H25.7441C25.7441 50.4464 25.7525 50.7581 25.7695 51.0654C25.7823 51.4241 25.8037 51.7784 25.8379 52.1328C26.6791 61.8898 33.2977 69.999 42.252 73.0137L32.5889 82.5098L32.5723 82.5273L32.5459 82.5527C31.9909 83.1164 31.6881 83.8725 31.6924 84.6709C31.701 85.4692 32.0169 86.2161 32.5889 86.7754L39.8398 93.9023C20.5264 89.4487 5.96126 72.5693 5.01758 52.1328C5.0005 51.7784 4.98705 51.4198 4.97852 51.0654C4.96998 50.7538 4.96582 50.4464 4.96582 50.1348H0.854492C0.380517 50.1348 0 49.7542 0 49.2803C7.27453e-05 49.0584 0.0852683 48.8448 0.243164 48.6826L2.95508 45.9238L4.15039 44.707L5.38867 43.4473L14.7441 33.9297C14.9107 33.7589 15.1334 33.6738 15.3555 33.6738ZM60.4297 6.24316C79.5851 10.7822 94.0049 27.5592 94.9785 47.8633C94.9999 48.2176 95.0129 48.5763 95.0215 48.9307C95.03 49.2679 95.0342 49.6051 95.0342 49.9424H99.1465C99.6204 49.9425 100 50.323 100 50.7969C99.9999 51.0188 99.9147 51.2366 99.7568 51.3945L97.1738 54.0244L95.9775 55.2412L94.7441 56.4971L85.2559 66.1514C85.0894 66.3221 84.8674 66.4081 84.6455 66.4082C84.4236 66.4082 84.2143 66.3265 84.0479 66.1602C84.0436 66.1559 84.0391 66.1556 84.0391 66.1514L73.7568 55.6904L72.8643 54.7803L71.959 53.8584L69.5332 51.3945C69.2044 51.0572 69.2086 50.5186 69.5459 50.1855C69.7039 50.0276 69.9225 49.9424 70.1445 49.9424H74.2559C74.2559 49.6051 74.2475 49.2636 74.2305 48.9307C74.2134 48.5721 74.1923 48.2176 74.1582 47.8633C73.2871 38.1533 66.6941 30.0909 57.7783 27.0762L67.5352 17.4863L67.5479 17.4727L67.5732 17.4473C68.1283 16.8793 68.4363 16.1276 68.4277 15.3291C68.4191 14.5308 68.1029 13.7839 67.5352 13.2246L60.4297 6.24316ZM46.2363 45.9072C47.0004 45.9073 47.6196 46.1034 48.085 46.4961C48.5504 46.8889 48.8366 47.4447 48.9434 48.1621H47.9736C47.79 47.1885 47.2138 46.7012 46.2402 46.7012C45.5913 46.7012 45.1 46.9279 44.7627 47.3848C44.4297 47.8417 44.2592 48.4995 44.2549 49.3662V49.9678C44.2549 50.7919 44.4426 51.4501 44.8184 51.9326C45.194 52.4149 45.7022 52.662 46.3467 52.6621C46.7096 52.6621 47.0265 52.6241 47.2998 52.543C47.5727 52.4619 47.7987 52.3253 47.9736 52.1377V50.4932H46.2744V49.7031H48.9395V52.3975L48.9434 52.3936C48.6957 52.748 48.3454 53.0173 47.9014 53.1924C47.4573 53.3674 46.9359 53.457 46.3467 53.457C45.7578 53.457 45.2158 53.3158 44.7549 53.0342C44.2895 52.7524 43.9306 52.3549 43.6787 51.834C43.4268 51.3173 43.2937 50.7154 43.2852 50.0322V49.3916C43.2852 48.2857 43.5419 47.4276 44.0586 46.8213C44.5753 46.2107 45.3012 45.9072 46.2363 45.9072ZM42.5293 53.3584H41.5342L40.834 51.4365H37.7598L37.0684 53.3584H36.0693L38.874 46.0137H39.7197L42.5293 53.3584ZM51.5947 53.3584H50.626V46.0137H51.5947V53.3584ZM54.3408 52.5684H57.8203V53.3584H53.3672V46.0137H54.3408V52.5684ZM63.543 46.7998H59.8955V49.165H63.0771V49.9639H59.8955V52.5645H63.5938V53.3545H58.9268V46.0098H63.543V46.7998ZM38.0547 50.6475H40.5527L39.3018 47.2139L38.0547 50.6475ZM50.6807 0C50.907 0 51.1213 0.0894424 51.2793 0.243164L54.1572 3.07422L55.3779 4.27441L56.6416 5.5127L66.0361 14.749C66.3734 15.0778 66.3776 15.6201 66.0488 15.9531L66.0361 15.9658L55.4121 26.4062L54.4941 27.3066L53.5596 28.2246L51.2793 30.4668C51.117 30.6291 50.8984 30.71 50.6807 30.71C50.4631 30.7098 50.2416 30.6244 50.0752 30.458C49.9173 30.2958 49.8272 30.0827 49.8271 29.8564V25.7441C49.5282 25.7441 49.2292 25.7528 48.9346 25.7656C48.5759 25.7784 48.2215 25.7992 47.8672 25.8291C38.1443 26.6575 30.0564 33.2165 26.999 42.1152L17.4854 32.4307L17.4473 32.3926C16.888 31.8419 16.141 31.5382 15.3555 31.5381C14.5698 31.5381 13.7876 31.8542 13.2197 32.4307L6.10645 39.6729C10.62 20.4279 27.4735 5.94381 47.8672 5.02148C48.2216 5.00014 48.5802 4.98767 48.9346 4.9834C49.2335 4.97486 49.5282 4.9707 49.8271 4.9707V0.854492C49.8271 0.384935 50.2112 0.000241415 50.6807 0Z" fill="currentColor"/>
</svg>
