<svg width="21" height="20" viewBox="0 0 21 20" fill="none" xmlns="http://www.w3.org/2000/svg">
<path d="M17.1 0H2.9C1.3 0 0 1.29353 0 2.88557V17.1144C0 18.7065 1.3 20 2.9 20H17.2C18.8 20 20.1 18.7065 20.1 17.1144V2.88557C20.1 1.29353 18.8 0 17.2 0H17.1ZM16.4 18.01L14.5 16.3184L13.2 14.0299C12.3 14.6269 11.1 14.9254 9.9 14.9254C8.7 14.9254 7.6 14.6269 6.6 14.0299L5.3 16.3184L3.4 18.01C3.2 18.209 2.8 18.01 2.8 17.6119L3.4 15.1244L4.9 12.5373C4 11.4428 3.4 9.95025 3.4 8.45771C3.4 6.96517 3.4 7.9602 3.4 7.76119H5.5C5.5 7.9602 5.5 8.25871 5.5 8.45771C5.5 9.15423 5.7 9.95025 6 10.5473L7.3 8.25871L6.9 7.76119V4.87562C6.9 4.47761 7.2 4.1791 7.6 4.1791H8.3V2.78607H11.2V4.1791H11.9C12.3 4.1791 12.6 4.47761 12.6 4.87562V7.76119L12.2 8.25871L16.2 15.1244L16.8 17.5124C16.8 17.9104 16.5 18.1095 16.2 17.9104L16.4 18.01Z" fill="currentColor"/>
<path d="M10.5999 10.6467C10.2999 11.0447 9.6999 11.0447 9.4999 10.6467L9.0999 10.1492L7.8999 12.2387C8.4999 12.6367 9.2999 12.8357 10.0999 12.8357C10.8999 12.8357 11.6999 12.6367 12.2999 12.2387L11.0999 10.1492L10.6999 10.6467H10.5999Z" fill="currentColor"/>
<path d="M10.0001 8.4577C10.7733 8.4577 11.4001 7.83402 11.4001 7.06467C11.4001 6.29531 10.7733 5.67163 10.0001 5.67163C9.2269 5.67163 8.6001 6.29531 8.6001 7.06467C8.6001 7.83402 9.2269 8.4577 10.0001 8.4577Z" fill="currentColor"/>
</svg>
