<svg width="19" height="20" viewBox="0 0 19 20" fill="none" xmlns="http://www.w3.org/2000/svg">
<path d="M8.38379 0.5H10.6133C10.9485 0.5 11.2281 0.732215 11.291 1.03809V1.04004L11.832 3.61426L11.8857 3.87012L12.1279 3.97168C12.6156 4.17632 13.0724 4.4397 13.4873 4.75L13.6953 4.90527L13.9414 4.82422L16.4697 3.99707C16.7852 3.89336 17.128 4.02458 17.291 4.30371H17.292L18.4062 6.20801C18.568 6.48502 18.5119 6.83149 18.2666 7.0459L18.2656 7.04688L16.2793 8.78906L16.0801 8.96387L16.1123 9.22656C16.143 9.47543 16.1572 9.73424 16.1572 10C16.1572 10.2614 16.1396 10.5224 16.1113 10.7803L16.083 11.0391L16.2793 11.21L18.2695 12.957H18.2705C18.5136 13.1694 18.5691 13.5193 18.4102 13.7949L17.2959 15.6982C17.1524 15.9422 16.8709 16.074 16.5928 16.0342L16.4736 16.0068L13.9453 15.1797L13.7002 15.0986L13.4922 15.2529C13.074 15.5631 12.616 15.8234 12.1279 16.0332L11.8887 16.1357L11.8359 16.3906L11.2988 18.959C11.233 19.2708 10.9525 19.5 10.6211 19.5H8.3916C8.05643 19.5 7.77777 19.2677 7.71484 18.9619L7.71387 18.96L7.17773 16.3906L7.12402 16.1328L6.88184 16.0312L6.52246 15.8672C6.17004 15.6926 5.8359 15.4868 5.52051 15.2529L5.31348 15.0986L5.06738 15.1787L2.5293 16.0059L2.52734 16.0068C2.21192 16.1103 1.86899 15.9793 1.70605 15.7002V15.6992L0.591797 13.7949C0.430419 13.5179 0.486194 13.1713 0.731445 12.957H0.732422L2.72266 11.21L2.92188 11.0361L2.88965 10.7734C2.85896 10.5246 2.84473 10.2658 2.84473 10C2.84473 9.73865 2.86138 9.47758 2.88965 9.21973L2.91895 8.96094L2.72266 8.79004L0.732422 7.04297H0.731445C0.488277 6.83052 0.432747 6.48076 0.591797 6.20508L1.70605 4.30078V4.2998C1.86899 4.02073 2.21192 3.8897 2.52734 3.99316H2.52832L5.05566 4.82031L5.30176 4.90137L5.50977 4.74707C5.92796 4.43695 6.38588 4.17655 6.87402 3.9668L7.1123 3.86426L7.16602 3.61035L7.70703 1.04004V1.03809C7.76991 0.732365 8.04876 0.500206 8.38379 0.5ZM9.47461 6.55859C7.55822 6.56715 5.99612 8.10495 6.00488 10.0137C6.01382 11.9201 7.58281 13.4499 9.50098 13.4414C11.4174 13.4329 12.9795 11.8951 12.9707 9.98633C12.9618 8.07991 11.3927 6.55017 9.47461 6.55859Z" stroke="currentColor"/>
</svg>
