<svg width="25" height="20" viewBox="0 0 25 20" fill="none" xmlns="http://www.w3.org/2000/svg">
<path d="M14.524 7.56419C14.524 6.57736 13.8301 6.0326 12.6112 6.0326H10.3692V9.21188H12.2598C13.7189 9.20741 14.524 8.61799 14.524 7.56419ZM22.6868 6.99263C22.2642 5.61286 22.202 3.92052 22.2509 2.61219C22.2998 1.25028 21.2411 0 19.8176 0H5.19128C3.76335 0 2.70907 1.25474 2.75801 2.61219C2.80249 3.92052 2.74466 5.61286 2.32206 6.99263C1.89502 8.37687 1.17883 9.25207 0 9.3637V10.6363C1.17438 10.7479 1.89502 11.6231 2.32206 13.0074C2.74466 14.3871 2.80694 16.0795 2.75801 17.3878C2.70907 18.7497 3.76779 20 5.19128 20H19.8132C21.2411 20 22.2954 18.7453 22.2464 17.3878C22.202 16.0795 22.2598 14.3871 22.6824 13.0074C23.1094 11.6231 23.8256 10.7479 25 10.6363V9.3637C23.8301 9.25207 23.1094 8.37687 22.6868 6.99263ZM13.0427 15.3204H8.68772V4.67962H13.0205C14.9466 4.67962 16.21 5.72449 16.21 7.33199C16.21 8.46171 15.3603 9.47086 14.2749 9.64501V9.70306C15.7518 9.86381 16.7438 10.8908 16.7438 12.3063C16.7438 14.1862 15.3514 15.3204 13.0427 15.3204ZM12.5979 10.4666H10.3692V13.9674H12.6957C14.2171 13.9674 15.0222 13.3557 15.0222 12.2036C15.0222 11.056 14.1948 10.4666 12.5979 10.4666Z" fill="currentColor"/>
</svg>
