<svg width="18" height="20" viewBox="0 0 18 20" fill="none" xmlns="http://www.w3.org/2000/svg">
<path d="M18 10C18 11.3965 18 12.6933 18 14.0898C18 14.5885 17.8033 15.0873 17.5082 15.3865C17.4098 15.4863 17.3115 15.586 17.1148 15.6858C14.6557 17.0823 12.2951 18.4788 9.83607 19.7756C9.34426 20.0748 8.7541 20.0748 8.16393 19.7756C5.70492 18.3791 3.2459 16.9825 0.885246 15.586C0.393443 15.2868 0.0983607 14.788 0 14.1895C0 12.1945 0 10.1995 0 8.20449C0 7.40648 0 6.60848 0 5.81047C0 5.21197 0.295082 4.81297 0.688525 4.41397C0.786885 4.31421 0.983607 4.21446 1.18033 4.11471C3.54098 2.91771 5.90164 1.5212 8.16393 0.224439C8.7541 -0.074813 9.2459 -0.074813 9.83607 0.224439C11.7049 1.3217 13.6721 2.41895 15.541 3.41646C16.0328 3.71571 16.623 4.01496 17.1148 4.31421C17.5082 4.51372 17.8033 4.91272 17.9016 5.41147C17.9016 5.51122 17.9016 5.61097 17.9016 5.81047C17.9016 7.20698 17.9016 8.60349 17.9016 9.90025L18 10ZM13.082 6.90773C12 5.41147 10.0328 4.41397 7.77049 5.01247C5.5082 5.61097 3.83607 7.70574 3.93443 10.1995C3.93443 12.394 5.60656 14.5885 8.06557 15.0873C10.2295 15.4863 12.1967 14.4888 13.1803 13.0923C12.5902 12.6933 11.9016 12.394 11.3115 11.995C10.0328 13.3915 8.06557 13.192 6.98361 11.995C5.90164 10.798 5.90164 9.00249 6.98361 7.90524C8.16393 6.60848 10.2295 6.50873 11.4098 7.90524C12 7.50623 12.6885 7.20698 13.2787 6.80798L13.082 6.90773ZM13.2787 10.399H12.3934V11.2968H13.2787V12.1945H14.1639V11.2968H15.0492V12.1945H15.9344V11.2968H16.8197V10.399H15.9344V9.50125H16.8197V8.60349H15.9344V7.70574H15.0492V8.60349H14.1639V7.70574H13.2787V8.60349H12.3934V9.50125H13.2787V10.399Z" fill="currentColor"/>
<path d="M14.25 10.4V9.5H15.15V10.4H14.25Z" fill="currentColor"/>
</svg>
