<svg width="26" height="20" viewBox="0 0 26 20" fill="none" xmlns="http://www.w3.org/2000/svg">
<path d="M3.61111 7.14286C3.61111 3.19643 6.84306 0 10.8333 0C12.9594 0 14.8688 0.910714 16.1913 2.35268C16.6698 2.21429 17.1753 2.14286 17.6944 2.14286C20.6872 2.14286 23.1111 4.54018 23.1111 7.5C23.1111 8.08929 23.0163 8.65625 22.8358 9.1875C24.7135 10.1295 26 12.058 26 14.2857C26 17.442 23.4135 20 20.2222 20H6.5C2.91146 20 0 17.1205 0 13.5714C0 11.0357 1.48507 8.84375 3.64271 7.79464C3.62465 7.58036 3.61111 7.36161 3.61111 7.14286ZM10.8333 2.14286C8.03924 2.14286 5.77778 4.37946 5.77778 7.14286C5.77778 7.51786 5.8184 7.88393 5.89965 8.23661C6.02153 8.77679 5.70556 9.32143 5.17292 9.49107C3.42604 10.0446 2.16667 11.6652 2.16667 13.5714C2.16667 15.9375 4.10764 17.8571 6.5 17.8571H20.2222C22.2174 17.8571 23.8333 16.2589 23.8333 14.2857C23.8333 12.6161 22.6733 11.2098 21.1024 10.8214C20.7639 10.7366 20.4885 10.5 20.3576 10.183C20.2267 9.86607 20.2628 9.50446 20.4479 9.21429C20.7639 8.71875 20.9444 8.13393 20.9444 7.50446C20.9444 5.72768 19.491 4.29018 17.6944 4.29018C17.1934 4.29018 16.724 4.40179 16.3042 4.59821C15.8302 4.82143 15.2615 4.67411 14.959 4.25C14.0427 2.97321 12.5351 2.14732 10.8378 2.14732L10.8333 2.14286Z" fill="currentColor"/>
</svg>
