<svg width="100" height="100" viewBox="0 0 100 100" fill="none" xmlns="http://www.w3.org/2000/svg">
<path d="M95.7266 0C98.1376 0 99.9939 1.98036 99.9941 4.26758V95.7324H100C99.9998 98.1432 98.0195 99.9998 95.7324 100H4.26758C1.85676 99.9998 0.000245154 98.0195 0 95.7324V4.26758C0.000247626 1.85676 1.98051 0.000244712 4.26758 0H95.7266ZM40.7803 11.8779C37.7502 11.878 35.334 14.2897 35.334 17.3252V31.6201C35.334 34.2788 37.1904 36.4482 39.6016 36.9434L28.4609 55.9414H17.9443C14.9142 55.9414 12.4971 58.3531 12.4971 61.3887V75.6836C12.4971 78.7137 14.9088 81.1299 17.9443 81.1299H36.5068C39.537 81.1299 41.9541 78.7191 41.9541 75.6836V61.3887C41.9541 58.3585 39.5424 55.9414 36.5068 55.9414H34.7148L45.7324 37.1309H54.333L65.4092 55.9414H63.5518C60.5218 55.9417 58.1055 58.3533 58.1055 61.3887V75.6836C58.1055 78.7135 60.5165 81.1296 63.5518 81.1299H82.1152C85.1453 81.1299 87.5615 78.7191 87.5615 75.6836V61.3887C87.5615 58.3532 85.1507 55.877 82.1152 55.877H71.5928L60.4521 36.9434C62.9279 36.4482 64.7851 34.2196 64.7852 31.6201V17.3252C64.7852 14.2951 62.3734 11.8779 59.3379 11.8779H40.7803Z" fill="currentColor"/>
</svg>
