<svg width="14" height="20" viewBox="0 0 14 20" fill="none" xmlns="http://www.w3.org/2000/svg">
<path d="M0 3.73134C0 1.69154 1.66187 0 3.77698 0H10.223C12.2878 0 14 1.69154 14 3.73134C14 5.77114 13.3453 6.16915 12.2878 6.86567C13.295 7.51244 14 8.65672 14 10C14 12.0398 12.2878 13.7313 10.223 13.7313H10.1223C9.16547 13.7313 8.25899 13.3831 7.60432 12.7861V16.2189C7.60432 18.3085 5.89209 20 3.77698 20C1.66187 20 0 18.3582 0 16.2687C0 14.1791 0.654676 13.8308 1.71223 13.1343C0.705036 12.4876 0 11.3433 0 10C0 8.65672 0.654676 7.56219 1.71223 6.86567C0.705036 6.21891 0 5.07463 0 3.73134ZM6.39568 7.46269H3.77698C2.36691 7.46269 1.25899 8.55721 1.25899 9.95025C1.25899 11.3433 2.36691 12.4378 3.77698 12.4378H6.39568V7.41293V7.46269ZM7.60432 9.95025C7.60432 11.3433 8.71223 12.4378 10.1223 12.4378H10.223C11.6331 12.4378 12.741 11.3433 12.741 9.95025C12.741 8.55721 11.5827 7.46269 10.223 7.46269H10.1223C8.71223 7.46269 7.60432 8.55721 7.60432 9.95025ZM3.77698 13.6816C2.36691 13.6816 1.25899 14.8259 1.25899 16.1692C1.25899 17.5124 2.41727 18.6567 3.82734 18.6567C5.23741 18.6567 6.44604 17.5124 6.44604 16.1194V13.6318H3.82734L3.77698 13.6816ZM3.77698 1.24378C2.36691 1.24378 1.25899 2.33831 1.25899 3.73134C1.25899 5.12438 2.41727 6.21891 3.77698 6.21891H6.39568V1.24378H3.77698ZM7.60432 6.21891H10.223C11.6331 6.21891 12.741 5.07463 12.741 3.73134C12.741 2.38806 11.5827 1.24378 10.223 1.24378H7.60432V6.26866V6.21891Z" fill="currentColor"/>
</svg>
