<svg width="20" height="20" viewBox="0 0 20 20" fill="none" xmlns="http://www.w3.org/2000/svg">
<path d="M19.625 9.11161L10.8929 0.379464C10.6518 0.133929 10.3214 0 9.98214 0C9.64286 0 9.3125 0.133929 9.07143 0.375L7.25446 2.1875L9.55357 4.48661C10.7634 4.08036 11.9062 5.23661 11.4911 6.4375L13.7098 8.65625C15.2366 8.12946 16.442 10.0402 15.2946 11.1875C14.1116 12.3705 12.1607 11.058 12.7946 9.52232L10.7277 7.45536V12.8973C11.8571 13.4554 11.7232 14.7634 11.1339 15.3527C10.8482 15.6384 10.4554 15.8036 10.0491 15.8036C9.64286 15.8036 9.25446 15.6429 8.96429 15.3527C8.17857 14.567 8.46875 13.2589 9.46429 12.8527V7.36161C8.53571 6.98214 8.36607 5.99107 8.63393 5.35268L6.36607 3.08036L0.379464 9.06697C0.133929 9.3125 0 9.63839 0 9.97768C0 10.317 0.133929 10.6473 0.379464 10.8884L9.11161 19.625C9.35268 19.8661 9.67857 20 10.0223 20C10.3661 20 10.692 19.8661 10.933 19.625L19.625 10.933C19.8661 10.692 20 10.3616 20 10.0223C20 9.68304 19.8661 9.35268 19.625 9.11161Z" fill="currentColor"/>
</svg>
