<svg width="93" height="100" viewBox="0 0 93 100" fill="none" xmlns="http://www.w3.org/2000/svg">
<path d="M45.9502 0.000343475C48.4864 -0.0160323 50.9925 0.553357 53.2725 1.66441L84.9209 19.3666C89.2482 22.1085 92.0016 26.7119 92.3281 31.7709L92.5723 67.6126C92.4423 70.1202 91.7207 72.5612 90.4668 74.7367C89.2129 76.9122 87.4622 78.7608 85.3574 80.1302L53.9336 98.2376C51.6692 99.3816 49.1707 99.9859 46.6338 100.002C44.0969 100.019 41.5905 99.447 39.3115 98.3324L7.64746 80.6488C5.52269 79.3091 3.74466 77.486 2.45996 75.3275C1.17521 73.1689 0.420233 70.7364 0.255859 68.2298L0 32.4037C0.130685 29.8966 0.854447 27.4558 2.11133 25.2826C3.36823 23.1095 5.1226 21.2652 7.23047 19.9017L38.6504 1.75913C40.9157 0.618695 43.414 0.0167902 45.9502 0.000343475ZM37.5098 30.1068C34.7897 30.0182 32.0811 30.5046 29.5615 31.5335C27.0421 32.5625 24.768 34.1111 22.8877 36.0785C13.8489 45.6399 13.5962 69.6684 13.5957 69.7171H78.6699V47.931H66.9746V58.0882H26.0742C26.33 54.2998 28.0842 47.5336 31.4043 44.0326C32.1799 43.2363 33.1179 42.616 34.1543 42.2142C35.1906 41.8124 36.3016 41.6382 37.4111 41.7035H78.9932V30.1068H37.5098Z" fill="currentColor"/>
</svg>
