<svg width="20" height="20" viewBox="0 0 20 20" fill="none" xmlns="http://www.w3.org/2000/svg">
<path d="M8.3002 7C8.1002 7.8 7.6002 9.3 7.2002 10.4H9.4002C9.1002 9.6 8.6002 7.9 8.3002 7Z" fill="currentColor"/>
<path d="M16.5 0H3.5C1.6 0 0 1.6 0 3.5V16.5C0 18.4 1.6 20 3.5 20H16.5C18.4 20 20 18.4 20 16.5V3.5C20 1.6 18.4 0 16.5 0ZM12.1 13.9H10.7C10.7 13.9 10.7 13.9 10.6 13.9L9.9 11.8H6.9L6.2 13.8C6.2 13.8 6.2 13.8 6.1 13.8H4.9C4.9 13.8 4.9 13.8 4.9 13.7L7.5 6.4C7.5 6.3 7.5 6.2 7.6 5.7H9.3L12.2 13.7V13.8L12.1 13.9ZM14.6 13.8C14.6 13.8 14.6 13.8 14.5 13.8H13.2C13.2 13.8 13.1 13.8 13.1 13.7V7.8H14.4V13.7L14.6 13.8ZM13.8 7C13.3 7 13 6.7 13 6.1C13 5.5 13.4 5.2 13.9 5.2C14.4 5.2 14.7 5.6 14.7 6.1C14.7 6.6 14.4 7 13.8 7Z" fill="currentColor"/>
</svg>
