<svg width="126" height="97" viewBox="0 0 126 97" fill="none" xmlns="http://www.w3.org/2000/svg">
<path d="M91.8037 42.499L62.8018 96.874L33.8008 42.499H91.8037ZM30.8604 42.3164L57.4375 92.1377L2.21191 34.6064L30.8604 42.3164ZM68.168 92.1357L94.7402 42.3164L123.387 34.6064L68.168 92.1357ZM90.7295 39.9951H34.876L62.8027 13.7568L90.7295 39.9951ZM29.165 39.2646L0 31.417L11.6719 8.07422L29.165 39.2646ZM125.604 31.417L96.4385 39.2646L113.932 8.07422L125.604 31.417ZM60.0146 12.9395L32.0225 39.2393L13.9219 6.96582L60.0146 12.9395ZM93.582 39.2393L65.5889 12.9395L111.683 6.96582L93.582 39.2393ZM86.4277 0L107.145 5.02539L62.8018 10.7764L18.46 5.02539L39.1777 0H86.4277Z" fill="currentColor"/>
</svg>
