<svg width="20" height="20" viewBox="0 0 20 20" fill="none" xmlns="http://www.w3.org/2000/svg">
<path d="M0 0V20H20V0H0ZM3.1 9.4H4.3V4.2H3.1V2.7H7.2V4.2H6.1V9.4H7.2V10.9H3.1V9.4ZM9.4 17.5H1.9V16.3H9.4V17.5ZM13.9 9.2C13.8 9.6 13.5 10 13.2 10.3C12.6 10.7 12 11 11.2 11C10.6 11 10.1 11 9.6 10.6C9.2 10.4 8.8 10.1 8.5 9.7L9.6 8.4C9.8 8.6 10 8.8 10.3 9C10.5 9.1 10.8 9.2 11.1 9.2C11.4 9.2 11.7 9.1 11.9 8.8C12.1 8.5 12.2 8.1 12.2 7.8V2.5H14.1V7.9C14.1 8.3 14.1 8.8 13.9 9.2Z" fill="currentColor"/>
</svg>
