<svg width="15" height="20" viewBox="0 0 15 20" fill="none" xmlns="http://www.w3.org/2000/svg">
<path d="M10.9197 12.2225C11.309 11.9608 11.8494 11.7342 11.8494 11.7342C11.8494 11.7342 10.3118 12.0077 8.78219 12.1327C6.91088 12.285 4.90052 12.3162 3.89137 12.1834C1.50357 11.8709 5.20248 11.0077 5.20248 11.0077C5.20248 11.0077 3.76821 10.9139 2.0002 11.7498C-0.085645 12.742 7.16516 13.1951 10.9197 12.2225ZM7.52671 10.9686C6.77183 9.30066 4.22511 7.83583 7.52671 5.27337C11.6468 2.0781 9.53309 0 9.53309 0C10.3873 3.30074 6.52947 4.30072 5.13493 6.35148C4.18538 7.7538 5.59978 9.25769 7.52671 10.9686ZM12.0798 4.08588C12.0838 4.08588 5.11904 5.7968 8.44448 9.56237C9.42582 10.6717 8.18623 11.6717 8.18623 11.6717C8.18623 11.6717 10.6773 10.4061 9.53309 8.8241C8.46434 7.34756 7.6459 6.61319 12.0798 4.08588ZM11.8375 14.6522C11.8176 14.6912 11.7898 14.7225 11.758 14.7537C16.8554 13.4373 14.9801 10.1092 12.5447 10.953C12.4135 10.9999 12.2983 11.0858 12.2189 11.1991C12.3619 11.1483 12.5089 11.1092 12.6559 11.0819C13.8875 10.828 15.6556 12.703 11.8375 14.6522ZM13.7088 17.0857C13.7088 17.0857 14.2849 17.5505 13.077 17.9138C10.7767 18.5974 3.50996 18.8044 1.49165 17.9412C0.764586 17.6326 2.12734 17.199 2.55643 17.1091C3.00141 17.0154 3.25966 17.031 3.25966 17.031C2.45313 16.4724 -1.95695 18.1287 1.01886 18.6013C9.13182 19.8982 15.8145 18.0193 13.7088 17.0857ZM4.82901 15.4685C1.70222 16.3279 6.7321 18.1013 10.7131 16.4256C10.3237 16.2771 9.95026 16.0974 9.59269 15.8865C7.81674 16.2185 6.99432 16.242 5.38126 16.0623C4.05029 15.9139 4.82901 15.4685 4.82901 15.4685ZM11.9725 19.2654C8.84576 19.8435 4.98793 19.7771 2.70343 19.406C2.70343 19.4021 3.17225 19.7849 5.57991 19.9372C9.24306 20.1677 14.8689 19.8083 15 18.1052C15 18.1052 14.7457 18.7498 11.9725 19.2654ZM10.2403 13.7889C7.88825 14.2342 6.5255 14.2225 4.80517 14.0467C3.4742 13.91 4.3443 13.2772 4.3443 13.2772C0.895696 14.4022 6.2593 15.6756 11.0786 14.2889C10.7687 14.1795 10.4827 14.0115 10.2403 13.7889Z" fill="currentColor"/>
</svg>
