<svg width="20" height="21" viewBox="0 0 20 21" fill="none" xmlns="http://www.w3.org/2000/svg">
<path d="M20 14.73C20 14.73 16.9072 21.4363 7.73196 19.7334C7.62887 19.7334 7.42268 19.7334 7.31959 19.6332C7.21649 19.6332 7.01031 19.6332 6.90722 19.5331C6.80412 19.5331 6.70103 19.5331 6.49484 19.4329C6.39175 19.4329 6.18557 19.3327 6.08247 19.2326C5.97938 19.2326 5.87629 19.2326 5.7732 19.1324C5.7732 19.1324 5.6701 19.1324 5.56701 19.0322C5.56701 19.0322 5.46392 19.0322 5.36082 19.0322C5.36082 19.0322 5.15464 18.932 5.05155 18.8319C5.05155 18.8319 5.05155 18.8319 4.94845 18.8319C4.84536 18.8319 4.63917 18.6315 4.53608 18.6315C4.53608 18.6315 4.53608 18.6315 4.43299 18.6315C4.43299 18.6315 4.2268 18.5314 4.2268 18.4312C4.2268 18.4312 4.02062 18.331 4.02062 18.2309C4.02062 18.2309 4.02062 18.2309 3.91753 18.2309C3.91753 18.2309 3.81443 18.1307 3.71134 18.0305C3.71134 18.0305 3.71134 18.0305 3.60825 18.0305C3.60825 18.0305 3.40206 17.9303 3.29897 17.8302C3.29897 17.8302 3.09278 17.6298 2.98969 17.5297C2.98969 17.5297 2.8866 17.4295 2.78351 17.3293C2.78351 17.3293 2.57732 17.129 2.47423 17.0288C2.47423 17.0288 2.26804 16.8285 2.16495 16.7283C2.16495 16.7283 2.06186 16.528 1.95876 16.528C1.95876 16.528 1.85567 16.3276 1.75258 16.2275C1.75258 16.1273 1.54639 16.0271 1.54639 15.927C1.54639 15.927 1.54639 15.927 1.54639 15.8268C1.54639 15.8268 1.4433 15.6264 1.34021 15.6264C1.34021 15.6264 1.34021 15.6264 1.34021 15.5263C1.34021 15.5263 1.34021 15.3259 1.23711 15.3259C1.23711 15.3259 1.23711 15.3259 1.23711 15.2258C1.23711 15.2258 1.23711 15.2258 1.23711 15.1256C1.23711 15.1256 1.23711 15.0254 1.13402 14.9253C-0.309278 12.1205 -0.515464 8.71475 1.34021 6.01017L2.78351 4.20712C1.13402 7.31238 1.85567 11.1188 3.91753 13.9236C3.91753 14.0237 4.02062 14.1239 4.12371 14.2241C4.12371 14.2241 4.2268 14.4244 4.3299 14.4244C4.3299 14.5246 4.53608 14.6248 4.63917 14.7249C4.63917 14.7249 4.84536 14.9253 4.94845 15.0254C4.94845 15.0254 5.05155 15.1256 5.15464 15.2258C5.15464 15.2258 5.36082 15.4261 5.46392 15.5263C5.46392 15.5263 5.6701 15.7266 5.7732 15.7266C5.7732 15.7266 5.7732 15.7266 5.87629 15.7266C5.87629 15.7266 6.08247 15.8268 6.08247 15.927C6.08247 15.927 6.08247 15.927 6.18557 15.927C6.18557 15.927 6.39175 16.0271 6.49484 16.1273C6.49484 16.1273 6.70103 16.2275 6.80412 16.3276C6.80412 16.3276 6.80412 16.3276 6.90722 16.3276C7.01031 16.3276 7.21649 16.528 7.31959 16.528C7.31959 16.528 7.52577 16.6281 7.62887 16.7283C7.62887 16.7283 7.73196 16.7283 7.83505 16.7283C7.83505 16.7283 8.04124 16.7283 8.04124 16.8285C8.14433 16.8285 8.24742 16.8285 8.35051 16.9287C8.45361 16.9287 8.5567 17.0288 8.76289 17.129C8.86598 17.129 8.96907 17.129 9.07216 17.2292C9.17526 17.2292 9.38144 17.2292 9.48454 17.3293C9.48454 17.3293 9.48454 17.3293 9.58763 17.3293C9.69072 17.3293 9.89691 17.3293 10 17.4295C13.7113 18.2309 17.732 17.4295 20 14.7249V14.73ZM6.28866 9.91678C6.49485 10.2173 6.70103 10.5178 7.01031 10.8183C7.01031 10.9185 7.21649 11.0186 7.31959 11.1188C7.31959 11.1188 7.52577 11.3192 7.62887 11.4193C7.73196 11.5195 7.83505 11.6197 8.04124 11.7198C8.14433 11.7198 8.24742 11.9202 8.45361 12.0203C8.45361 12.0203 8.5567 12.0203 8.65979 12.1205C8.65979 12.1205 8.86598 12.2207 8.96907 12.3209C8.96907 12.3209 9.17526 12.3209 9.17526 12.421C9.17526 12.421 9.27835 12.421 9.38144 12.421C9.48453 12.421 9.58763 12.5212 9.79381 12.6214C9.79381 12.6214 10 12.6214 10.1031 12.7215C10.1031 12.7215 10.1031 12.7215 10.2062 12.7215C10.2062 12.7215 10.4124 12.7215 10.5155 12.7215C10.5155 12.7215 10.5155 12.7215 10.6186 12.7215C10.7216 12.7215 10.9278 12.7215 11.0309 12.8217C18.1443 13.9236 19.6907 8.71475 19.6907 8.71475C18.2474 10.8183 15.3608 11.7198 12.3711 11.0186C12.268 11.0186 12.0619 11.0186 11.9588 10.9185C11.9588 10.9185 11.9588 10.9185 11.8557 10.9185C11.8557 10.9185 11.6495 10.9185 11.5464 10.9185C11.5464 10.9185 11.5464 10.9185 11.4433 10.9185C11.4433 10.9185 11.2371 10.9185 11.134 10.8183C11.0309 10.8183 10.9278 10.7181 10.7216 10.618C10.7216 10.618 10.6186 10.618 10.5155 10.618C10.5155 10.618 10.5155 10.618 10.4124 10.618C10.4124 10.618 10.2062 10.618 10.2062 10.5178C10.2062 10.5178 10 10.4176 9.89691 10.3175C9.89691 10.3175 9.79381 10.3175 9.69072 10.2173C9.58763 10.2173 9.48454 10.017 9.27835 9.91678C7.93814 8.91509 6.90722 7.51272 6.39175 5.91C5.87629 4.30729 5.97938 2.40407 6.90722 0.901526L5.7732 2.40407C4.43299 4.30729 4.43299 6.9117 5.56701 8.91509C5.7732 9.2156 5.97938 9.61628 6.18557 9.91678H6.28866ZM13.7113 7.61288C13.7113 7.61288 13.8144 7.61288 13.9175 7.61288H14.1237C18.0412 8.31407 19.0722 5.70966 19.3814 5.30899C18.4536 6.61119 16.9072 6.9117 14.9485 6.51102C14.8454 6.51102 14.6392 6.51102 14.5361 6.41085C14.3299 6.41085 14.1237 6.31068 14.0206 6.21051C13.7113 6.01017 13.4021 5.80983 13.0928 5.60949C11.4433 4.40746 10.3093 2.00339 11.4433 0L10.8247 0.801356C10 2.00339 9.89691 3.40576 10.5155 4.70797C11.134 6.11034 12.268 7.11204 13.7113 7.61288Z" fill="currentColor"/>
</svg>
