<svg width="86" height="100" viewBox="0 0 86 100" fill="none" xmlns="http://www.w3.org/2000/svg">
<path d="M12.7471 84.8029C13.7348 84.7502 14.7235 84.8916 15.6562 85.2209C16.5891 85.5502 17.4479 86.0606 18.1836 86.7219C18.9193 87.3832 19.5178 88.1828 19.9443 89.0754C20.3709 89.968 20.6166 90.9362 20.6689 91.924C20.7629 93.4306 20.4064 94.9314 19.6445 96.2346C18.8827 97.5376 17.7504 98.5843 16.3916 99.2414C15.0328 99.8986 13.5091 100.137 12.0146 99.925C10.5201 99.713 9.12263 99.0601 8 98.051C6.87738 97.0419 6.08041 95.7216 5.71094 94.258C5.34153 92.7945 5.41569 91.2542 5.9248 89.8332C6.43395 88.4122 7.35448 87.1744 8.56934 86.2785C9.7842 85.3826 11.2391 84.8695 12.7471 84.8029ZM80.1172 61.1535C77.2917 68.7936 72.1933 75.3852 65.5088 80.0402C58.8241 84.6953 50.8733 87.1906 42.7275 87.1906C34.5821 87.1905 26.6317 84.6952 19.9473 80.0402C13.2627 75.3852 8.16425 68.7935 5.33887 61.1535C12.6207 69.646 26.7041 75.3976 42.7275 75.3977C58.8225 75.3977 72.8531 69.6461 80.1172 61.1535ZM42.4111 41.4309L45.2773 49.1047C45.58 49.9593 45.9006 50.9924 46.1143 51.758C46.3635 50.9748 46.6308 49.9776 46.9512 49.052L49.5508 41.4309H52.0615L48.5 50.6896C46.7196 55.1405 45.6341 57.4377 43.9961 58.8264C43.1712 59.5798 42.1651 60.1065 41.0762 60.3566L40.4883 58.3635C41.2496 58.1133 41.9567 57.7204 42.5713 57.2063C43.4399 56.4984 44.129 55.5949 44.583 54.5705C44.6801 54.3932 44.7469 54.2008 44.7793 54.0012C44.7591 53.7864 44.705 53.576 44.6191 53.3781L39.7764 41.3957H42.376L42.4111 41.4309ZM5.875 53.1223C5.98584 54.0721 5.90487 55.0348 5.63574 55.9523C5.36657 56.87 4.91499 57.7246 4.30859 58.4641C3.18159 59.4361 1.7372 59.9617 0.249023 59.9416L0 58.1613C0.959952 58.1619 1.88626 57.8066 2.59961 57.1643C3.24057 56.4165 3.48926 55.4011 3.48926 52.2854V41.3361H5.875V53.1223ZM32.6055 41.1408C35.7746 41.1408 38.1602 43.7938 38.1602 47.7463C38.1601 52.4108 35.2941 54.7257 32.1963 54.7258C31.4034 54.7612 30.6143 54.5913 29.9062 54.2326C29.1983 53.8739 28.5948 53.3381 28.1543 52.6779V59.799H25.8047V45.6809C25.8047 44.0251 25.8041 42.672 25.6973 41.4436H27.834L27.9414 43.6691C28.4174 42.8651 29.1024 42.2052 29.9238 41.76C30.7453 41.3148 31.672 41.1007 32.6055 41.1408ZM70.0176 41.1965C74.2905 41.1965 75.3593 44.9347 75.3594 47.3205C75.3822 47.6881 75.3822 48.0574 75.3594 48.425H66.2041C66.1677 49.0051 66.2511 49.587 66.4521 50.133C66.6614 50.7013 66.9917 51.2175 67.4199 51.6457C67.8482 52.074 68.3643 52.4042 68.9326 52.6135C69.501 52.8227 70.1081 52.9059 70.7119 52.8576C71.9331 52.8849 73.1463 52.6542 74.2725 52.1809L74.6826 53.9611C73.3007 54.5304 71.8144 54.8039 70.3203 54.7629C69.4494 54.8225 68.576 54.6927 67.7598 54.383C66.9437 54.0734 66.204 53.5911 65.5918 52.9689C64.9796 52.3466 64.5091 51.5987 64.2129 50.7775C63.9167 49.9564 63.8011 49.0809 63.875 48.2111C63.875 44.2943 66.2075 41.1965 70.0176 41.1965ZM21.3359 50.8098L21.2822 50.8811C21.2822 52.2164 21.2819 53.4099 21.3887 54.4426H19.2705L19.1279 52.3234C18.6848 53.0731 18.0509 53.6921 17.291 54.1174C16.5312 54.5426 15.6724 54.7596 14.8018 54.7453C12.7365 54.7453 10.2793 53.6228 10.2793 49.0471V41.4455H12.665V48.5666C12.665 51.0414 13.4307 52.6975 15.585 52.6975C16.028 52.7022 16.4676 52.6187 16.8779 52.4514C17.2882 52.284 17.6613 52.0361 17.9746 51.7229C18.2879 51.4096 18.5357 51.0364 18.7031 50.6262C18.8705 50.2158 18.955 49.7754 18.9502 49.3322V41.3566H21.3359V50.8098ZM58.3945 41.4348H61.8125V43.216H58.3945V50.2307C58.3946 51.8329 58.8574 52.759 60.1748 52.759C60.6427 52.7666 61.1096 52.7128 61.5635 52.5988L61.6699 54.3791C60.9895 54.6148 60.2715 54.7233 59.5518 54.6994C59.075 54.7293 58.597 54.6557 58.1514 54.4836C57.7059 54.3115 57.3026 54.0448 56.9697 53.7023C56.2446 52.7324 55.9137 51.5235 56.0439 50.3195V43.1975H54.0146V41.4172H56.0801V38.2482L58.3945 37.6965V41.4348ZM84.6758 41.1184C84.9003 41.0889 85.128 41.0889 85.3525 41.1184V43.3439C85.0806 43.3125 84.8061 43.3125 84.5342 43.3439C83.7261 43.3752 82.9566 43.6992 82.3701 44.2561C81.7836 44.813 81.4196 45.5648 81.3467 46.3703C81.2801 46.7345 81.2447 47.1037 81.2402 47.4738V54.3996H78.8896V45.4982L78.9785 45.4797C78.9785 43.9489 78.9789 42.6316 78.8721 41.4211H81.0088V43.967H81.1152C81.3395 43.1812 81.8033 42.4843 82.4414 41.9738C83.0793 41.4636 83.8602 41.1647 84.6758 41.1184ZM31.9111 43.0275C30.9179 43.1089 29.9884 43.5502 29.2969 44.2678C28.6053 44.9856 28.1987 45.9312 28.1543 46.927V49.1525C28.1608 49.4756 28.1971 49.7979 28.2617 50.1145C28.4638 50.9048 28.9236 51.605 29.5684 52.1047C30.2133 52.6045 31.0063 52.8749 31.8223 52.8732C34.3326 52.8732 35.8105 50.826 35.8105 47.8527C35.8105 45.2534 34.4215 43.0275 31.9111 43.0275ZM69.875 42.7268C68.897 42.7976 67.9808 43.2315 67.3057 43.9426C66.6306 44.6539 66.2453 45.592 66.2256 46.5725H73.1865C73.2552 46.0966 73.2215 45.6112 73.0869 45.1496C72.9523 44.6881 72.7199 44.261 72.4062 43.8967C72.0924 43.5323 71.7042 43.239 71.2676 43.0373C70.831 42.8356 70.3559 42.7295 69.875 42.7268ZM42.7275 8.3791C50.8733 8.3791 58.8241 10.8745 65.5088 15.5295C72.1932 20.1845 77.2917 26.7754 80.1172 34.4152C72.8353 25.9227 58.7513 20.1721 42.7275 20.1721C26.6329 20.1722 12.6207 25.905 5.33887 34.4152C8.16426 26.7754 13.2628 20.1845 19.9473 15.5295C26.6317 10.8746 34.5821 8.37919 42.7275 8.3791ZM6.03125 9.59688C6.87176 9.39799 7.75261 9.45192 8.5625 9.75215C9.37225 10.0524 10.0753 10.5857 10.583 11.2844C11.0906 11.983 11.3805 12.8161 11.416 13.6789C11.4498 14.8459 11.0213 15.9789 10.2246 16.8322C9.42804 17.6855 8.32745 18.19 7.16113 18.2365C6.29772 18.2604 5.44579 18.0291 4.71387 17.5705C3.98197 17.1119 3.40196 16.4467 3.04688 15.6594C2.69182 14.872 2.57799 13.9969 2.71875 13.1447C2.85953 12.2928 3.24873 11.5015 3.83789 10.8703C4.42733 10.239 5.19071 9.79577 6.03125 9.59688ZM71.6484 0.00898594C72.4333 -0.0341938 73.2187 0.0785801 73.96 0.340041C74.7013 0.601576 75.3837 1.00724 75.9678 1.5334C76.5518 2.05956 77.027 2.69537 77.3643 3.40547C77.7015 4.11556 77.8949 4.88595 77.9336 5.6711C78.0066 6.86688 77.722 8.05747 77.1162 9.09102C76.5102 10.1248 75.6097 10.9553 74.5303 11.4758C73.4509 11.9962 72.2409 12.1834 71.0547 12.0139C69.8685 11.8443 68.7594 11.3256 67.8691 10.5236C66.9788 9.72159 66.3478 8.67215 66.0557 7.50996C65.7636 6.3478 65.8242 5.12493 66.2295 3.99727C66.6348 2.86977 67.3661 1.88816 68.3311 1.17793C69.2962 0.467634 70.4512 0.0607071 71.6484 0.00898594Z" fill="currentColor"/>
</svg>
