<svg width="100" height="100" viewBox="0 0 100 100" fill="none" xmlns="http://www.w3.org/2000/svg">
<path d="M84 0C92.8366 1.41737e-06 100 7.16345 100 16V84C100 92.8366 92.8366 100 84 100H16C7.16345 100 0 92.8366 0 84V16C1.41746e-06 7.16345 7.16345 0 16 0H84ZM19.2715 67.8643L34.9365 94.3223L39.4346 83.9785L31.1133 52.4922L19.2715 67.8643ZM78.3115 53.3232L78.2568 54.0195C76.9924 68.6202 64.7085 80.118 49.7852 80.1182C49.1838 80.1182 48.5895 80.0929 47.998 80.0557L43.4404 84.7031L43.084 85.5205C45.2522 85.9479 47.4915 86.1768 49.7852 86.1768C68.9202 86.1766 84.4325 70.6666 84.4326 51.5303C84.4326 48.1208 83.9374 44.8251 83.0205 41.7139L78.3115 53.3232ZM37.0752 44.9219L41.9082 80.6045L52.4502 69.8506L52.9258 34.9521L37.0752 44.9219ZM60.123 31.3535L56.1787 67.9893L69.6914 64.0254L84.8623 26.6318L60.123 31.3535ZM69.4766 5.50488C59.1488 7.77253 54.0225 11.9827 49.5195 17.082C43.9559 11.7009 38.1761 12.7679 38.1621 12.7705C42.0052 13.9385 44.1596 16.6757 44.8877 19.1992C43.9683 18.5445 42.9019 18.0775 41.6396 18.126L41.6348 18.1289H41.626C39.5945 18.3924 37.1998 19.0866 34.3818 20.4844C22.978 26.153 15.1377 37.9248 15.1377 51.5293C15.1378 55.8532 15.9392 59.9913 17.3867 63.8145L21.9248 57.9248C21.4527 55.8674 21.1963 53.7274 21.1963 51.5283C21.1963 40.5939 27.2824 30.7797 37.0762 25.9102C39.5636 24.6776 41.7504 24.0528 43.5781 24.0527C43.8142 24.0527 44.02 24.0827 44.2324 24.1025C47.1236 24.483 49.7842 27.2158 49.7842 27.2158C49.8165 27.1781 52.1068 24.5167 55.207 24.1094C55.4555 24.0845 55.7045 24.0537 55.9902 24.0537C57.8167 24.0537 60.0034 24.679 62.4834 25.9053C62.9344 26.1314 63.3659 26.3741 63.8008 26.6201L72.084 25.0391C69.9767 23.2648 67.6704 21.7212 65.1816 20.4824C62.1722 18.9939 59.642 18.2993 57.5234 18.0781L57.4863 18.0869C56.0327 18.0335 55.0263 18.5592 54.1914 19.2822C57.1188 14.7992 61.8327 9.13056 69.4766 5.50488Z" fill="currentColor"/>
</svg>
