<svg width="106" height="100" viewBox="0 0 106 100" fill="none" xmlns="http://www.w3.org/2000/svg">
<path d="M60.2637 10.0225H101.593C103.961 10.0227 105.869 11.8909 105.869 14.2051V84.7451C105.869 87.0591 103.961 88.9266 101.593 88.9268H60.2637V100L0 89.998V9.99707L60.2637 0V10.0225ZM60.2637 22.4756H87.3496C88.0311 22.561 88.569 23.0978 88.6543 23.7793V43.7285H96.2979C96.8791 43.7286 97.0456 44.4264 96.7119 44.7686L86.0459 55.7021L75.21 44.792C74.7478 44.2868 75.1625 43.7287 75.5986 43.7285H83.1182V27.6865H60.2637V58.4375L68.335 50.3662C68.598 50.1032 68.9552 49.9552 69.3271 49.9551C69.6991 49.9551 70.0562 50.1032 70.3193 50.3662L82.9844 63.0303L70.3193 75.6953C70.0563 75.9581 69.699 76.1054 69.3271 76.1055C68.9554 76.1054 68.598 75.9581 68.335 75.6953L60.2637 67.623V85.4219H102.414V13.4873H60.2637V22.4756ZM31.6768 32.0898L20.0781 32.7354V66.2412L26.3447 66.6162L26.3428 54.7236H31.2256C36.5806 54.4529 40.1408 49.4812 40.6416 43.7246C40.8761 40.9998 40.4243 37.8841 38.9131 35.7188C37.1808 33.2422 35.4307 31.9689 31.6768 32.0898ZM29.7803 38.417C31.9021 38.4918 33.4698 40.2605 33.5703 43.2422C33.6821 45.8859 31.932 48.4315 29.5977 48.5352H26.3418L26.3398 38.4375L29.7803 38.417Z" fill="currentColor"/>
</svg>
