<svg width="18" height="20" viewBox="0 0 18 20" fill="none" xmlns="http://www.w3.org/2000/svg">
<path d="M8.99597 20C8.72605 20 8.4521 19.9286 8.21441 19.7936L5.72874 18.3451C5.3581 18.1387 5.53939 18.0673 5.66025 18.0276C6.15577 17.8569 6.25649 17.8212 6.78424 17.5236C6.84064 17.4918 6.91316 17.5037 6.96956 17.5394L8.87914 18.6546C8.94763 18.6943 9.04431 18.6943 9.10877 18.6546L16.5497 14.424C16.6182 14.3844 16.6625 14.305 16.6625 14.2256V5.76446C16.6625 5.68112 16.6182 5.60571 16.5457 5.56206L9.10877 1.33545C9.04029 1.29576 8.94763 1.29576 8.87914 1.33545L1.44629 5.56603C1.37377 5.60571 1.32945 5.68509 1.32945 5.76843V14.2256C1.32945 14.305 1.37377 14.3844 1.44629 14.4201L3.48478 15.5789C4.59266 16.1226 5.26947 15.4837 5.26947 14.8368V6.48675C5.26947 6.36769 5.36616 6.27642 5.48702 6.27642H6.42972C6.54655 6.27642 6.64727 6.36769 6.64727 6.48675V14.8408C6.64727 16.2933 5.84154 17.1267 4.4436 17.1267C4.01253 17.1267 3.67413 17.1267 2.73142 16.6663L0.781558 15.5591C0.29812 15.2852 0 14.7733 0 14.2216V5.76446C0 5.21679 0.29812 4.70086 0.781558 4.42703L8.21441 0.196448C8.68577 -0.0654827 9.31021 -0.0654827 9.77753 0.196448L17.2184 4.43099C17.7019 4.70483 18 5.21679 18 5.76843V14.2256C18 14.7733 17.7019 15.2852 17.2184 15.5631L9.77753 19.7936C9.53984 19.9286 9.26992 20 8.99597 20ZM15.0027 11.6619C15.0027 10.0784 13.915 9.6577 11.6307 9.36005C9.31826 9.05844 9.0846 8.90366 9.0846 8.37186C9.0846 7.93134 9.28201 7.34398 10.9942 7.34398C12.521 7.34398 13.085 7.66941 13.3187 8.68538C13.3389 8.78063 13.4275 8.85207 13.5282 8.85207H14.4951C14.5555 8.85207 14.6119 8.82826 14.6522 8.7846C14.6925 8.74095 14.7126 8.68142 14.7086 8.62189C14.5595 6.87171 13.3791 6.05814 10.9942 6.05814C8.87108 6.05814 7.60609 6.93918 7.60609 8.41949C7.60609 10.0228 8.86705 10.4673 10.9015 10.6657C13.3389 10.8999 13.5282 11.2531 13.5282 11.7254C13.5282 12.5429 12.8594 12.8922 11.2923 12.8922C9.32229 12.8922 8.89123 12.404 8.74619 11.4396C8.73008 11.3364 8.64145 11.261 8.53268 11.261H7.56983C7.44897 11.261 7.35631 11.3563 7.35631 11.4714C7.35631 12.7056 8.03715 14.178 11.2963 14.178C13.6491 14.174 15.0027 13.2573 15.0027 11.6619Z" fill="currentColor"/>
</svg>
