<svg width="20" height="20" viewBox="0 0 20 20" fill="none" xmlns="http://www.w3.org/2000/svg">
<path d="M7.1998 7.1001C6.7998 7.1001 6.3998 7.1001 6.2998 7.1001V10.0001C6.4998 10.0001 6.6998 10.0001 7.0998 10.0001C8.0998 10.0001 8.9998 9.7001 8.9998 8.5001C8.9998 7.3001 8.3998 7.1001 7.1998 7.1001Z" fill="currentColor"/>
<path d="M16.5 0H3.5C1.6 0 0 1.6 0 3.5V16.5C0 18.4 1.6 20 3.5 20H16.5C18.4 20 20 18.4 20 16.5V3.5C20 1.6 18.4 0 16.5 0ZM7.1 11.3H6.3V13.8H5V5.8C5.5 5.8 6.4 5.8 7.3 5.8C9.7 5.8 10.6 7.1 10.6 8.5C10.6 10.5 9.1 11.3 7.2 11.3H7.1ZM13.4 14.1C12.7 14.1 12 14 11.6 13.8C11.6 13.8 11.6 13.8 11.6 13.7V12.5C12.1 12.8 12.8 13 13.4 13C14 13 14.4 12.8 14.4 12.5C14.4 12.2 14.2 12 13.4 11.7C12 11.2 11.6 10.6 11.6 9.7C11.6 8.8 12.4 7.9 13.9 7.9C15.4 7.9 15.2 7.9 15.5 8.1C15.5 8.1 15.5 8.1 15.5 8.2V9.3C15.5 9.3 15.5 9.3 15.4 9.3C15 9.1 14.4 8.9 13.8 8.9C13.2 8.9 12.9 9.2 12.9 9.4C12.9 9.6 13.1 9.9 13.9 10.2C15.3 10.7 15.8 11.3 15.8 12.2C15.8 13.1 14.9 14.1 13.4 14.1Z" fill="currentColor"/>
</svg>
