<svg width="20" height="20" viewBox="0 0 20 20" fill="none" xmlns="http://www.w3.org/2000/svg">
<path d="M14.8001 8.5H14.0001L13.6001 10.7H14.3001C14.8001 10.7 15.1001 10.7 15.3001 10.4C15.5001 10.2 15.7001 9.9 15.8001 9.5C15.8001 9.1 15.8001 8.8 15.7001 8.7C15.6001 8.5 15.3001 8.5 14.8001 8.5Z" fill="currentColor"/>
<path d="M5.8001 8.5H5.0001L4.6001 10.7H5.3001C5.8001 10.7 6.1001 10.7 6.3001 10.4C6.5001 10.2 6.7001 9.9 6.8001 9.5C6.8001 9.1 6.8001 8.8 6.7001 8.7C6.6001 8.5 6.3001 8.5 5.8001 8.5Z" fill="currentColor"/>
<path d="M17 0H3C1.3 0 0 1.3 0 3V17C0 18.7 1.3 20 3 20H17C18.7 20 20 18.7 20 17V3C20 1.3 18.7 0 17 0ZM7.3 10.9C7.1 11.1 6.8 11.3 6.5 11.4C6.2 11.4 5.9 11.5 5.4 11.5H4.4L4.1 12.9H3L4 7.6H6.2C6.9 7.6 7.3 7.8 7.7 8.1C8 8.4 8.1 8.9 8 9.6C8 9.9 7.9 10.1 7.7 10.3C7.6 10.5 7.4 10.7 7.2 10.9H7.3ZM10.6 11.5L11.1 9.2C11.1 8.9 11.1 8.8 11.1 8.7C11.1 8.7 10.8 8.6 10.5 8.6H9.6L9 11.6H7.9L8.9 6.3H10L9.7 7.7H10.7C11.3 7.7 11.8 7.8 12 8C12.2 8.2 12.3 8.6 12.2 9.1L11.7 11.5H10.5H10.6ZM17 9.7C17 10 16.9 10.2 16.7 10.4C16.6 10.6 16.4 10.8 16.2 11C16 11.2 15.7 11.4 15.4 11.5C15.1 11.5 14.8 11.6 14.3 11.6H13.3L13 13H11.9L12.9 7.7H15.1C15.8 7.7 16.2 7.9 16.6 8.2C16.9 8.5 17 9 16.9 9.7H17Z" fill="currentColor"/>
</svg>
