<svg width="122" height="100" viewBox="0 0 122 100" fill="none" xmlns="http://www.w3.org/2000/svg">
<path d="M42.2766 54.7471C50.0371 48.5501 60.1615 48.578 68.6819 51.3116C77.2136 54.0488 85.3094 59.826 89.7132 66.9639C91.9448 70.5813 93.3544 74.7691 93.095 79.1876C92.8304 83.693 90.8559 87.9486 87.18 91.5997C85.547 93.2215 83.6723 94.4262 81.5413 95.003C79.3859 95.5863 77.3138 95.4332 75.4602 94.8721C74.4426 94.5641 73.4775 94.1237 72.5667 93.6085C69.6533 95.8749 65.2604 98.6635 60.6565 99.6387C58.2794 100.142 55.6052 100.213 53.0061 99.2393C50.5641 98.3244 48.5174 96.6082 46.9719 94.1465C45.5747 94.2564 44.1402 93.7757 43.0755 92.7032C42.0696 91.6898 41.5929 90.3499 41.6448 89.0274C41.3852 91.3422 39.5104 93.2187 37.1028 93.3985C34.3816 93.6016 32.0111 91.5601 31.8079 88.8389C30.5746 72.3233 34.4564 60.9919 42.2766 54.7471ZM60.0989 82.2647C59.8414 82.3929 59.4997 82.5964 59.0706 82.9171C58.2075 83.562 57.255 84.4781 56.2122 85.6221C55.1886 86.745 54.2042 87.9436 53.1887 89.1729C53.2833 89.3025 53.3724 89.4384 53.4524 89.5821C54.2413 90.9983 55.0714 91.5707 55.7796 91.836C56.5615 92.1289 57.6188 92.2007 59.0178 91.9044C61.3737 91.4054 63.9883 90.0144 66.2571 88.4395C65.4426 87.6046 64.6616 86.7638 63.9544 86.0059C62.9816 84.9634 62.1537 84.0846 61.386 83.3575C60.8282 82.8292 60.4053 82.4829 60.0989 82.2647ZM65.6634 60.7208C58.9492 58.5667 52.6799 59.0853 48.4427 62.4688C44.2653 65.8046 40.5454 73.1438 41.6624 88.1026C41.6767 88.2938 41.6795 88.4839 41.6721 88.671C41.7928 87.5901 42.269 86.5418 43.1009 85.7159C43.7162 85.1051 44.483 84.1961 45.5237 82.9366C46.5013 81.7534 47.6721 80.3224 48.9094 78.9649C50.1434 77.6112 51.5761 76.1813 53.1555 75.001C54.143 74.2631 55.3076 73.532 56.6262 72.9981C56.6269 72.9958 56.6285 72.9935 56.6292 72.9913C57.4215 70.3984 57.7005 67.8477 57.4446 64.9483C57.2527 62.7737 58.8598 60.8551 61.0344 60.6631C63.2089 60.4714 65.1276 62.0785 65.3196 64.253C65.6052 67.4881 65.3896 70.4992 64.6829 73.4776C66.0079 74.2336 67.1947 75.2476 68.1819 76.1827C69.2057 77.1524 70.2358 78.2519 71.18 79.2637C72.1611 80.3151 73.0729 81.2974 73.9993 82.212C75.9744 84.1619 77.3679 85.1238 78.3235 85.4131C78.6743 85.5193 78.8438 85.4951 78.9593 85.4639C79.0992 85.426 79.5266 85.2728 80.2161 84.588C82.3523 82.4661 83.1224 80.436 83.2298 78.6085C83.3422 76.6939 82.7503 74.4999 81.302 72.1524C78.3455 67.3603 72.3661 62.8713 65.6634 60.7208ZM2.20535 16.6436C5.87908 9.08822 17.3258 -2.42493 35.0803 1.26666C37.2177 1.71109 38.5902 3.8041 38.1458 5.94147C37.7013 8.07881 35.6083 9.45132 33.471 9.0069C20.4206 6.2934 12.0569 14.5876 9.37136 19.9883C9.35904 20.0305 9.33849 20.1035 9.31179 20.213C9.24175 20.5002 9.15774 20.9118 9.0657 21.4512C8.88233 22.526 8.69266 23.9623 8.5198 25.6465C8.17428 29.0133 7.91464 33.2157 7.90554 37.2393C7.89682 41.1056 8.12176 44.5492 8.61941 46.9014C8.96638 46.4497 9.33903 45.9041 9.73269 45.2589C11.0747 43.0592 12.4093 40.1377 13.7278 36.9122C15.0523 33.672 16.2456 30.4186 17.427 27.3829C18.5369 24.5311 19.706 21.6757 20.8704 19.837C22.0384 17.9926 24.4811 17.4444 26.3255 18.6124C28.1696 19.7804 28.7179 22.2222 27.5501 24.0665C26.8714 25.1381 25.9664 27.2381 24.7942 30.2501C23.6936 33.0781 22.3972 36.5981 21.0462 39.9034C19.6892 43.2232 18.163 46.6202 16.4817 49.376C15.6389 50.7574 14.6932 52.0855 13.6302 53.1915C12.5863 54.2775 11.2433 55.3438 9.57546 55.8926C8.44664 56.2642 7.17346 56.3332 5.90652 55.9034C4.68377 55.4885 3.79077 54.7197 3.17019 53.9669C2.01356 52.5635 1.40014 50.7292 1.02273 49.1505C0.234934 45.8549 -0.00930846 41.4651 0.000269134 37.2217C0.0100163 32.9043 0.285352 28.4364 0.654566 24.8389C0.839071 23.0412 1.05093 21.4211 1.27273 20.1212C1.38321 19.4736 1.50245 18.8676 1.63113 18.3399C1.74223 17.8843 1.91868 17.2331 2.20535 16.6436ZM81.2688 0.723695C93.3528 -1.57445 103.168 1.94488 109.933 6.44537C113.298 8.68434 115.946 11.1861 117.798 13.3956C118.722 14.4974 119.485 15.5731 120.049 16.5538C120.512 17.3597 121.164 18.6399 121.242 20.004C121.476 24.0608 121.279 32.4329 120.641 39.6094C120.323 43.1874 119.878 46.6668 119.271 49.2403C118.982 50.4656 118.581 51.8253 117.963 52.9141C117.665 53.4392 117.11 54.2791 116.158 54.8956C114.993 55.6503 113.455 55.9077 111.963 55.3028C110.492 54.7062 109.319 53.5853 108.476 52.6417C107.561 51.618 106.665 50.3743 105.811 49.0567C104.1 46.4163 102.328 43.1191 100.669 39.8399C99.0046 36.5491 97.3901 33.1484 96.0247 30.3155C94.6105 27.3814 93.5391 25.2203 92.8655 24.128C91.7196 22.2698 92.2974 19.8345 94.1555 18.6885C96.0137 17.5428 98.4491 18.1205 99.595 19.9786C100.533 21.4999 101.802 24.0939 103.147 26.8839C104.54 29.7754 106.104 33.0696 107.724 36.2715C109.242 39.2721 110.755 42.0814 112.151 44.295C112.383 42.715 112.59 40.8855 112.766 38.9092C113.363 32.1944 113.542 24.5246 113.368 20.8204C113.332 20.7446 113.277 20.6357 113.196 20.4932C112.91 19.9969 112.432 19.3011 111.739 18.4737C110.356 16.8243 108.27 14.8342 105.554 13.0274C100.156 9.43616 92.4138 6.65151 82.7454 8.4903C80.6009 8.89794 78.5323 7.49017 78.1243 5.34577C77.7164 3.20112 79.1242 1.13158 81.2688 0.723695ZM78.8626 32.0157C83.5433 32.2819 86.7738 33.5295 89.3704 35.377C90.6028 36.2539 91.6084 37.2069 92.4563 38.0518C93.3672 38.9594 93.9887 39.6255 94.7688 40.3321C96.3869 41.7976 96.5107 44.298 95.0452 45.9161C93.5798 47.5339 91.0802 47.6575 89.4622 46.1924C89.2239 45.9766 88.9872 45.754 88.7561 45.5313C88.7529 45.6156 88.7479 45.7004 88.7405 45.7852C88.7408 45.8019 88.7408 45.8227 88.7415 45.8477C88.7437 45.9298 88.7622 46.3904 88.76 46.7442C88.7577 47.1306 88.7379 47.7996 88.5677 48.5479C88.3961 49.3014 87.9996 50.4627 87.0042 51.5069C85.0268 53.5806 81.7419 53.659 79.6682 51.6817C78.1323 50.2169 77.692 48.0348 78.3704 46.1592C78.3701 46.1486 78.3697 46.1378 78.3694 46.127C78.3654 45.9779 78.3613 45.7724 78.3655 45.5479C78.3697 45.326 78.3829 45.0272 78.4251 44.6905L78.4436 44.5577C78.7396 42.6009 80.0999 41.0556 81.8587 40.4385C80.9342 40.1792 79.8122 39.9888 78.4134 39.9092C76.2339 39.7852 74.5678 37.9169 74.6917 35.7374C74.8159 33.558 76.6832 31.8918 78.8626 32.0157ZM47.1917 32.0098C49.3746 32.01 51.1437 33.7791 51.1438 35.962C51.1438 38.145 49.3747 39.9149 47.1917 39.9151C46.8989 39.9151 46.6097 39.9192 46.3245 39.9249C47.1648 40.9245 47.6315 42.2394 47.5276 43.6446C47.4205 45.0923 47.2524 46.5556 47.0589 47.921C46.6567 50.7579 44.0306 52.7313 41.1936 52.3292C38.3567 51.927 36.3834 49.3018 36.7854 46.4649C36.9535 45.2789 37.0933 44.0509 37.18 42.8799C37.2077 42.5049 37.2754 42.1418 37.3772 41.795C36.0568 42.4571 34.8139 43.327 33.6175 44.4542C32.0285 45.9512 29.5266 45.877 28.0296 44.2881C26.5326 42.6993 26.6069 40.1973 28.1956 38.7003C33.9791 33.2513 40.5019 32.0098 47.1917 32.0098ZM46.9397 14.627C49.9213 14.4368 52.5053 15.3071 54.5403 17.0303C56.4724 18.6665 57.6592 20.8554 58.4153 22.9483C59.906 27.0748 60.1292 32.0013 60.1292 35.4005C60.1291 37.5835 58.3591 39.3536 56.1761 39.3536C53.9931 39.3535 52.223 37.5835 52.2229 35.4005C52.2229 32.1267 51.9723 28.3824 50.9798 25.6348C50.4942 24.2908 49.9368 23.4919 49.4309 23.0635C49.0278 22.7223 48.4792 22.4505 47.4427 22.5167C45.2642 22.6555 43.3854 21.0018 43.2464 18.8233C43.1076 16.6449 44.7612 14.766 46.9397 14.627ZM67.3841 18.2794C69.2051 16.4066 71.6859 15.4783 74.5589 15.7803C76.7299 16.0086 78.3046 17.954 78.0764 20.1251C77.8482 22.2961 75.9037 23.8707 73.7327 23.6426C73.1992 23.5865 73.1332 23.7065 73.052 23.7901C72.7959 24.0536 72.3931 24.7159 72.052 26.0577C71.3655 28.7589 71.3596 32.321 71.3596 35.4005C71.3596 37.5835 69.5896 39.3536 67.4065 39.3536C65.2236 39.3534 63.4544 37.5834 63.4544 35.4005C63.4544 32.6045 63.4107 27.9636 64.3899 24.1104C64.8818 22.1752 65.738 19.9722 67.3841 18.2794Z" fill="currentColor"/>
</svg>
