<svg width="20" height="20" viewBox="0 0 20 20" fill="none" xmlns="http://www.w3.org/2000/svg">
<path d="M6.5 5.6C6.5 4.7 5.9 4.3 5 4.3H3.6V6.8H5C5.9 6.8 6.4 6.2 6.4 5.6H6.5ZM0 0V20H20V0H0ZM1.9 2.6H5.2C7.2 2.6 8.4 3.8 8.4 5.5C8.4 7.4 6.9 8.5 5.1 8.5H3.7V11H1.9V2.6ZM9.4 17.5H1.9V16.3H9.4V17.5ZM13.4 11C10.9 11 9.1 9.1 9.1 6.8C9.1 4.4 10.9 2.5 13.4 2.5C15.9 2.5 15.9 3 16.7 3.8L15.5 5.1C14.9 4.5 14.2 4.2 13.4 4.2C12 4.2 11 5.3 11 6.8C11 8.2 12 9.4 13.4 9.4C14.8 9.4 14.9 9 15.6 8.4L16.8 9.6C16 10.5 15 11.1 13.4 11.1V11Z" fill="currentColor"/>
</svg>
