<svg width="20" height="20" viewBox="0 0 20 20" fill="none" xmlns="http://www.w3.org/2000/svg">
<path d="M19.6262 7.53976C19.2773 6.13934 18.6293 5.13904 17.2336 5.13904H15.4393V7.23967C15.4393 8.89017 14.0436 10.2906 12.4486 10.2906H7.7134C6.41745 10.2906 5.32087 11.3909 5.32087 12.6913V17.2427C5.32087 18.5431 6.41745 19.2933 7.7134 19.6434C9.20872 20.0935 10.6542 20.1435 12.4486 19.6434C13.6449 19.2933 14.8411 18.5931 14.8411 17.2427V15.4421H10.1059V14.842H17.2336C18.6293 14.842 19.1277 13.8917 19.6262 12.4412C20.1246 10.9408 20.1246 9.49035 19.6262 7.58978V7.53976ZM12.7975 18.443C12.4486 18.443 12.1495 18.293 11.9502 17.9929C11.8006 17.6928 11.8006 17.3427 11.9502 17.0426C12.1495 16.7425 12.4486 16.5925 12.7975 16.5925C13.1464 16.5925 13.4455 16.7425 13.6449 17.0426C13.7944 17.3427 13.7944 17.6928 13.6449 17.9929C13.4455 18.293 13.1464 18.443 12.7975 18.443ZM7.51402 9.69041H12.2492C13.595 9.69041 14.6417 8.59008 14.6417 7.28969V2.68831C14.6417 1.38792 13.5452 0.437631 12.2492 0.187556C10.6542 -0.0625188 8.90966 -0.0625188 7.51402 0.187556C5.52025 0.537661 5.1215 1.28789 5.1215 2.68831V4.48885H9.8567V5.08903H3.3271C1.93146 5.08903 0.735202 5.93928 0.336449 7.48975C-0.11215 9.29029 -0.11215 10.4406 0.336449 12.3412C0.685358 13.7416 1.48287 14.7419 2.8785 14.7419H4.52336V12.5413C4.52336 10.9408 5.86916 9.59038 7.51402 9.59038V9.69041ZM7.21495 1.48795C7.7134 1.48795 8.11215 1.88807 8.11215 2.38822C8.11215 2.88837 7.7134 3.28849 7.21495 3.28849C6.71651 3.28849 6.31776 2.88837 6.31776 2.38822C6.31776 1.88807 6.71651 1.48795 7.21495 1.48795Z" fill="currentColor"/>
</svg>
