<svg width="23" height="20" viewBox="0 0 23 20" fill="none" xmlns="http://www.w3.org/2000/svg">
<path d="M18.7863 6.48124C18.5438 6.40089 18.3012 6.325 18.0586 6.25357C18.099 6.0884 18.135 5.92323 18.1709 5.75806C18.7234 3.09749 18.3596 0.959212 17.1332 0.253892C15.9518 -0.420179 14.0246 0.280677 12.075 1.96809C11.8818 2.13326 11.6932 2.30735 11.5135 2.48145C11.3922 2.36539 11.2664 2.24932 11.1406 2.13772C9.09668 0.334245 7.04824 -0.424643 5.82188 0.285141C4.64492 0.963676 4.29453 2.97696 4.78867 5.49468C4.83809 5.74467 4.89199 5.99019 4.95488 6.24018C4.66738 6.32053 4.38438 6.40981 4.11934 6.50356C1.72051 7.32941 0 8.63291 0 9.98105C0 11.3738 1.83281 12.7711 4.32598 13.6193C4.52813 13.6862 4.73027 13.7532 4.93691 13.8112C4.86953 14.079 4.81113 14.3424 4.75723 14.6147C4.28555 17.0923 4.65391 19.0565 5.83086 19.7305C7.04375 20.4269 9.0832 19.7127 11.0687 17.9851C11.226 17.8467 11.3832 17.7039 11.5404 17.5521C11.7381 17.744 11.9447 17.9271 12.1514 18.1056C14.074 19.7484 15.9742 20.4135 17.1467 19.7395C18.3596 19.0431 18.7549 16.9316 18.2428 14.3603C18.2023 14.1639 18.1574 13.963 18.108 13.7576C18.2518 13.7175 18.391 13.6728 18.5303 13.6282C21.1223 12.7755 23 11.3962 23 9.98105C23 8.62845 21.2301 7.31602 18.7863 6.48124ZM12.7084 2.69126C14.3795 1.24491 15.9383 0.677977 16.648 1.08421C17.4072 1.51722 17.6992 3.26712 17.223 5.56611C17.1916 5.71789 17.1602 5.8652 17.1197 6.01251C16.1225 5.78931 15.1117 5.62861 14.0965 5.53932C13.5125 4.70901 12.8746 3.91441 12.1828 3.16892C12.358 3.00375 12.5287 2.8475 12.7084 2.69126ZM7.51094 12.2979C7.74004 12.6863 7.97363 13.0746 8.2207 13.4541C7.51992 13.3782 6.82363 13.2666 6.13633 13.1193C6.33398 12.4765 6.58105 11.8113 6.86855 11.1328C7.07519 11.5256 7.28633 11.914 7.51094 12.2979ZM6.1498 6.92764C6.79668 6.78479 7.48398 6.66873 8.19824 6.57945C7.96016 6.94996 7.72656 7.32941 7.50645 7.71332C7.28633 8.09276 7.0707 8.48113 6.86855 8.87397C6.58555 8.20883 6.34746 7.55707 6.1498 6.92764ZM7.38066 10.0034C7.67715 9.38733 8.00059 8.78469 8.34199 8.19097C8.6834 7.59725 9.05176 7.02139 9.43809 6.45445C10.1119 6.40535 10.7992 6.37857 11.5 6.37857C12.2008 6.37857 12.8926 6.40535 13.5619 6.45445C13.9437 7.01692 14.3076 7.59279 14.6535 8.18204C14.9994 8.77129 15.3229 9.37394 15.6283 9.98552C15.3273 10.6016 15.0039 11.2087 14.658 11.8068C14.3166 12.4006 13.9527 12.9764 13.5709 13.5478C12.9016 13.5969 12.2053 13.6193 11.5 13.6193C10.7947 13.6193 10.1119 13.5969 9.45156 13.5568C9.06074 12.9898 8.69238 12.4095 8.34648 11.8158C8.00059 11.2221 7.68164 10.6194 7.38066 10.0034ZM15.4936 12.289C15.7227 11.8961 15.9383 11.4988 16.1494 11.0971C16.4369 11.7444 16.6885 12.4006 16.9086 13.0746C16.2123 13.2309 15.507 13.3514 14.7973 13.4318C15.0398 13.0568 15.2689 12.6729 15.4936 12.289ZM16.1404 8.87397C15.9293 8.48113 15.7137 8.0883 15.4891 7.70439C15.2689 7.32494 15.0398 6.94996 14.8018 6.57945C15.525 6.66873 16.2168 6.78926 16.8637 6.93657C16.657 7.59725 16.4145 8.24007 16.1404 8.87397ZM11.509 3.85191C11.9807 4.36082 12.4254 4.8965 12.8387 5.45004C11.9492 5.40987 11.0553 5.40987 10.1658 5.45004C10.6061 4.87418 11.0598 4.3385 11.509 3.85191ZM6.29805 1.11545C7.05273 0.677977 8.72832 1.30294 10.4938 2.85643C10.6061 2.95464 10.7184 3.06178 10.8352 3.16892C10.1389 3.91441 9.49648 4.70901 8.90801 5.53932C7.89277 5.62861 6.88652 5.78485 5.88926 6.00359C5.83086 5.77592 5.78145 5.54379 5.73203 5.31166C5.30977 3.15106 5.58828 1.52168 6.29805 1.11545ZM5.19746 12.8827C5.00879 12.8291 4.82461 12.7711 4.64043 12.7086C3.68359 12.4095 2.59648 11.9363 1.81035 11.3158C1.35664 11.0033 1.05117 10.5212 0.96582 9.98105C0.96582 9.16413 2.38535 8.11954 4.43379 7.40976C4.68984 7.32048 4.95039 7.24013 5.21094 7.16424C5.51641 8.13294 5.88477 9.08378 6.31152 10.0034C5.88027 10.9364 5.50742 11.9006 5.19746 12.8827ZM10.4354 17.2574C9.69414 17.9315 8.83613 18.4672 7.90176 18.8333C7.40312 19.0699 6.82813 19.0922 6.31602 18.8913C5.60176 18.4806 5.30527 16.9048 5.70957 14.7844C5.75898 14.5344 5.81289 14.2844 5.87578 14.0389C6.88203 14.2531 7.89727 14.4005 8.92598 14.4763C9.51895 15.3111 10.1703 16.1102 10.8666 16.8601C10.7229 16.9985 10.5791 17.1325 10.4354 17.2574ZM11.5359 16.1727C11.0777 15.6816 10.6195 15.137 10.1748 14.5522C10.6061 14.5701 11.0508 14.579 11.5 14.579C11.9627 14.579 12.4164 14.5701 12.8656 14.5478C12.4523 15.1147 12.0076 15.6549 11.5359 16.1727ZM17.4072 17.5119C17.3668 18.0565 17.0973 18.5654 16.666 18.9091C15.9518 19.3198 14.4289 18.7842 12.7848 17.3824C12.5961 17.2217 12.4074 17.0476 12.2143 16.8691C12.9016 16.1147 13.535 15.3156 14.11 14.4763C15.1387 14.3915 16.1629 14.2353 17.1736 14.0076C17.2186 14.1906 17.259 14.3737 17.2949 14.5522C17.515 15.5165 17.551 16.5209 17.4072 17.5119ZM18.2248 12.713C18.099 12.7532 17.9732 12.7934 17.843 12.8291C17.5285 11.856 17.1422 10.9051 16.6975 9.98105C17.1287 9.07039 17.4926 8.13294 17.798 7.17317C18.0316 7.24013 18.2563 7.31155 18.4719 7.38298C20.5652 8.09722 22.0342 9.15967 22.0342 9.97212C22.0342 10.8471 20.4664 11.9765 18.2248 12.713ZM11.5 12.0434C12.6365 12.0434 13.5574 11.1283 13.5574 9.99891C13.5574 8.8695 12.6365 7.95438 11.5 7.95438C10.3635 7.95438 9.44258 8.8695 9.44258 9.99891C9.44258 11.1283 10.3635 12.0434 11.5 12.0434Z" fill="currentColor"/>
</svg>
