<svg width="20" height="20" viewBox="0 0 20 20" fill="none" xmlns="http://www.w3.org/2000/svg">
<path d="M10.1504 0C7.44361 0 4.83709 1.00376 2.93233 2.91092C-0.977444 6.8256 -0.977444 13.1493 2.93233 17.064C6.84211 20.9787 13.1579 20.9787 17.0677 17.064C20.9774 13.1493 20.9774 6.8256 17.0677 2.91092C15.2632 1.10414 12.7569 0 10.1504 0ZM6.54135 5.01882C7.04261 5.1192 7.44361 5.21957 7.94486 5.21957C8.74687 5.21957 9.54887 5.01882 10.2506 5.01882C11.7544 5.01882 13.1579 5.72146 13.1579 7.32748C13.1579 8.9335 12.3559 9.43538 11.1529 9.73651L13.4586 13.1493H14.5614V13.9523H12.8571L10.1504 9.83689H8.64662V13.1493H10.0501V13.9523H6.4411V13.1493H7.64411V5.92221L6.4411 5.72146V4.91844L6.54135 5.01882ZM10.2506 5.82183C9.74937 5.82183 9.24812 5.82183 8.64662 5.92221V9.13425H9.44862C11.3534 9.13425 12.1554 8.43162 12.1554 7.42786C12.1554 6.42409 11.3534 5.82183 10.2506 5.82183Z" fill="currentColor"/>
</svg>
