<svg width="27" height="20" viewBox="0 0 27 20" fill="none" xmlns="http://www.w3.org/2000/svg">
<path d="M23.3402 11.394C22.4591 11.394 21.6458 11.5943 20.9003 11.9281C20.6292 11.4608 20.4258 10.9935 20.3581 10.6597C20.3581 10.2591 20.2225 10.0588 20.3581 9.59149C20.3581 9.12417 20.6969 8.52332 20.6969 8.45656C20.6969 8.45656 20.6969 8.18952 20.087 8.18952C19.477 8.18952 19.0703 8.32304 19.0026 8.45656C18.9348 8.7236 18.7992 8.99064 18.7992 9.25769C18.7315 9.72501 17.7148 11.4608 17.1726 12.3954C16.9693 12.0616 16.8338 11.7278 16.766 11.4608C16.766 11.0602 16.6304 10.8599 16.766 10.3926C16.766 9.9253 17.1049 9.32445 17.1049 9.25769C17.1049 9.19093 17.1049 8.99065 16.4949 8.99065C15.9527 8.99065 15.4783 9.12417 15.4105 9.25769C15.4105 9.39121 15.275 9.72501 15.2072 10.0588C15.0716 10.3926 13.7839 13.2633 13.445 14.0645C13.2417 14.465 13.1062 14.7321 13.0384 14.9324C13.0384 14.9324 13.0384 14.9324 13.0384 14.9991C12.9706 15.1994 12.9028 15.2662 12.9028 15.2662C12.8351 15.3997 12.7673 15.5332 12.6995 15.5332C12.6317 15.5332 12.6317 15.1994 12.6995 14.7321C12.9028 13.7307 13.3773 12.1284 13.3773 12.1284C13.3773 12.1284 13.445 11.8614 13.0384 11.6611C12.6317 11.5276 12.4962 11.7278 12.4962 11.7278V11.7946C12.4962 11.7946 12.9028 10.0588 11.6829 10.0588C10.4629 10.0588 9.85296 10.9267 9.31076 11.6611C8.97189 11.8614 8.22637 12.1952 7.48084 12.6625C7.20974 12.796 6.87087 12.9963 6.59977 13.1298C5.10872 11.5276 2.26218 10.3926 2.39773 8.25628C2.39773 7.45515 2.7366 5.45232 7.75194 2.91541C11.8862 0.912589 15.2072 1.44668 15.8171 2.71513C16.6304 4.51767 14.055 7.78895 9.71741 8.25628C8.09082 8.45656 7.20974 7.78895 7.00642 7.58867C6.80309 7.32163 6.73532 7.32163 6.66755 7.38839C6.532 7.45515 6.66755 7.65543 6.66755 7.78895C6.80309 8.12275 7.34529 8.7236 8.22637 8.99065C9.03967 9.25769 10.9374 9.39121 13.2417 8.52332C15.8849 7.52191 17.9182 4.78472 17.3082 2.44809C16.6982 0.11146 12.7673 -0.68967 8.97189 0.645546C6.73532 1.44668 4.29543 2.64837 2.60105 4.25063C0.228934 6.05317 -0.10994 7.72219 0.0256098 8.3898C0.500034 10.8599 3.95655 12.4622 5.31205 13.6639C5.31205 13.6639 5.1765 13.7307 5.10872 13.7974C4.43097 14.1312 1.78776 15.4664 1.11001 16.9352C0.364484 18.5374 1.24556 19.7391 1.78776 19.8727C3.5499 20.34 5.37982 19.4721 6.32867 18.0701C7.27752 16.6681 7.20974 14.7988 6.73532 13.9309C6.93864 13.7974 7.07419 13.7307 7.27752 13.5971C7.61639 13.3969 7.95527 13.1966 8.29414 13.0631C8.15859 13.5304 8.02304 14.0645 7.95527 14.8656C7.88749 15.8002 8.29414 17.0019 8.76857 17.4693C8.97189 17.6695 9.24299 17.6695 9.44631 17.6695C10.0563 17.6695 10.2596 17.2022 10.5985 16.6014C10.9374 15.9338 11.2762 15.1326 11.2762 15.1326C11.2762 15.1326 10.8696 17.3357 11.954 17.3357C13.0384 17.3357 12.7673 16.8017 12.9028 16.6014V16.5346C13.0384 16.2676 13.445 15.6 13.9195 14.5986C14.5972 13.2633 15.275 11.5943 15.275 11.5943C15.275 11.9281 15.4105 12.3287 15.5461 12.6625C15.6816 13.0631 15.8849 13.4636 16.0882 13.9309C15.9527 14.1312 15.8171 14.2647 15.8171 14.2647C15.6816 14.3983 15.5461 14.5986 15.4105 14.7988C14.8683 15.3997 14.2583 16.1341 14.1228 16.3343C14.055 16.6014 14.055 16.7349 14.2583 16.9352C14.3939 17.0687 14.665 17.0687 14.9361 17.0687C15.4105 17.0687 15.7494 16.9352 15.9527 16.8684C16.2238 16.7349 16.5627 16.6014 16.8338 16.4011C17.376 16.0005 17.7148 15.4664 17.6471 14.7321C17.6471 14.3315 17.5115 13.9309 17.3082 13.5304C17.3082 13.5304 17.376 13.3969 17.4437 13.3301C18.257 12.1284 18.9348 10.7932 18.9348 10.7932C18.9348 11.127 19.0703 11.5276 19.2059 11.8614C19.2737 12.1952 19.477 12.5957 19.6803 12.9295C18.867 13.5304 18.3926 14.2647 18.257 14.7988C17.9182 15.6667 18.257 16.0673 18.6637 16.2008C18.867 16.2008 19.1381 16.2008 19.4092 16.0673C19.7481 15.9338 20.0192 15.8002 20.2903 15.6C20.8325 15.1994 21.3069 14.6653 21.3069 13.9309C21.3069 13.5971 21.1714 13.2633 21.1036 12.9295C21.7813 12.6625 22.6624 12.529 23.7468 12.6625C26.1189 12.9295 26.5934 14.3983 26.4578 14.9991C26.3223 15.6 25.8478 15.9338 25.7123 16.0673C25.5767 16.1341 25.509 16.2008 25.509 16.2676C25.509 16.4011 25.5767 16.4011 25.7123 16.3343C25.9156 16.3343 26.9322 15.867 27 14.7321C27 13.3301 25.7123 11.7278 23.2046 11.7946L23.3402 11.394ZM5.1765 17.4693C4.43097 18.3372 3.2788 18.6042 2.80438 18.3372C2.32995 18.0701 2.53328 16.8017 3.48213 15.9338C4.0921 15.3997 4.83762 14.8656 5.31205 14.5986C5.4476 14.5986 5.58315 14.465 5.78647 14.3315C5.78647 14.3315 5.85425 14.3315 5.92202 14.2647C6.2609 15.5332 5.92202 16.6681 5.10872 17.536L5.1765 17.4693ZM10.8696 13.6639C10.5985 14.3315 10.0563 16.0005 9.64964 15.867C9.37854 15.8002 9.17521 14.5318 9.64964 13.2633C9.85296 12.6625 10.3274 11.8614 10.5985 11.5943C11.0051 11.127 11.4796 10.9935 11.6151 11.1938C11.7507 11.4608 11.0729 13.2633 10.9374 13.6639H10.8696ZM15.6138 15.867C15.4783 15.867 15.4105 15.9338 15.3427 15.867V15.8002C15.3427 15.8002 15.9527 15.1994 16.156 14.8656C16.2916 14.7321 16.4271 14.5318 16.6304 14.2647C16.6304 14.9991 15.8849 15.5332 15.5461 15.7335L15.6138 15.867ZM19.2059 15.0659C19.1381 15.0659 19.1381 14.7988 19.4092 14.198C19.5448 13.9309 19.7481 13.5304 20.2225 13.1966C20.2225 13.3301 20.2903 13.4636 20.2903 13.6639C20.2903 14.5986 19.6125 14.9324 19.2059 15.0659Z" fill="currentColor"/>
</svg>
