<svg width="98" height="100" viewBox="0 0 98 100" fill="none" xmlns="http://www.w3.org/2000/svg">
<path d="M46.9902 1.38612e-06C59.9489 -0.00312361 71.7308 5.27793 80.2188 13.791C88.7129 22.2936 93.9843 34.0987 93.9814 47.084C93.9844 58.1554 90.1423 68.3614 83.748 76.4043L97.6191 90.3018L87.9404 100L73.749 85.7822C66.1533 91.0614 56.9209 94.1721 46.9902 94.1689C34.031 94.172 22.2498 88.8909 13.7627 80.3779C5.2675 71.8737 -0.00292254 60.0678 1.21583e-06 47.084C-0.00281578 34.0988 5.26764 22.2936 13.7627 13.791C22.2498 5.27796 34.0309 -0.00309213 46.9902 1.38612e-06ZM46.9902 10.668C36.9375 10.6709 27.8851 14.7364 21.291 21.334C14.7061 27.9419 10.6495 37.0112 10.6465 47.084C10.6494 57.1567 14.706 66.2268 21.291 72.835C27.8851 79.4312 36.9375 83.497 46.9902 83.5C57.043 83.4971 66.0951 79.4312 72.6885 72.835C79.275 66.2268 83.332 57.157 83.335 47.084C83.3319 37.0113 79.2749 27.9419 72.6885 21.334C66.0949 14.7363 57.043 10.6709 46.9902 10.668ZM27.7129 36.9043C30.3904 36.9043 32.9421 37.7296 34.6426 38.9805C34.8004 39.1026 34.832 39.2244 34.7061 39.4082L33.1934 41.666C33.0676 41.8189 32.91 41.85 32.7529 41.7588C31.0198 40.6594 29.4134 40.1406 27.6182 40.1406C25.4443 40.1406 24.2471 41.3006 24.2471 42.9189C24.2473 44.3536 25.2877 45.3296 28.1855 45.7266L29.3193 45.8789C33.4454 46.4289 35.7139 48.3212 35.7139 51.8936C35.7137 55.5875 32.973 58.3329 27.6504 58.333C24.4996 58.333 21.4439 57.1135 19.7744 55.5879C19.6486 55.4642 19.5861 55.2817 19.7119 55.1289L21.665 52.9307C21.7911 52.7783 21.9798 52.7786 22.1055 52.9004C23.4912 53.969 25.5391 55.0976 27.9326 55.0977C30.4843 55.0977 31.9648 53.8468 31.9648 52.1064C31.9648 50.6114 31.0198 49.6333 28.0586 49.2363L26.9248 49.084C22.7986 48.5357 20.4669 46.6115 20.4668 43.1631C20.4668 39.4085 23.3022 36.9043 27.7129 36.9043ZM52.6689 36.9043C52.8537 36.9044 52.9766 37.031 52.9766 37.2207V39.9307C52.9766 40.1188 52.8537 40.246 52.6689 40.2461H43.0918L42.9082 40.4346V45.665L43.0918 45.8545H51.1641C51.3489 45.8545 51.4726 45.9808 51.4727 46.1689V48.8789C51.4727 49.0687 51.3489 49.1953 51.1641 49.1953H43.0918L42.9082 49.3848V54.8037L43.0918 54.9932H52.6689C52.8536 54.9933 52.9764 55.1193 52.9766 55.3086V58.0176C52.9766 58.2073 52.8537 58.3329 52.6689 58.333H39.5928C39.4087 58.333 39.2861 58.2074 39.2861 58.0176V37.2207C39.2861 37.0309 39.4087 36.9043 39.5928 36.9043H52.6689ZM63.9717 36.9043C67.6404 36.9043 70.374 38.615 71.4639 41.9121C71.8979 43.1939 72.0234 44.3541 72.0234 47.6201C72.0234 50.8862 71.898 52.0463 71.4639 53.3281C70.374 56.6252 67.6405 58.333 63.9717 58.333C60.3353 58.3329 57.6002 56.625 56.5127 53.3281C56.077 52.0463 55.9522 50.8862 55.9521 47.6201C55.9521 44.3542 56.0771 43.1939 56.5127 41.9121C57.6001 38.6151 60.335 36.9044 63.9717 36.9043ZM63.9717 40.1406C61.8899 40.1407 60.6464 41.1781 60.0557 42.8564C59.8072 43.6196 59.6826 44.6579 59.6826 47.6201C59.6826 50.5497 59.8072 51.6189 60.0557 52.3818C60.6462 54.0602 61.8897 55.0976 63.9717 55.0977C66.0867 55.0977 67.329 54.0603 67.9189 52.3818C68.1674 51.6187 68.2932 50.5497 68.293 47.6201C68.293 44.6579 68.1674 43.6194 67.9189 42.8564C67.329 41.178 66.0867 40.1406 63.9717 40.1406Z" fill="currentColor"/>
</svg>
