<svg width="100" height="100" viewBox="0 0 100 100" fill="none" xmlns="http://www.w3.org/2000/svg">
<path d="M89.6736 0H10.3264C4.6225 0 0 4.6225 0 10.3264V89.6736C0 95.3775 4.6225 100 10.3264 100H89.6736C95.3775 100 100 95.3775 100 89.6736V10.3264C100 4.6225 95.3775 0 89.6736 0ZM49.1172 81.9199C32.0507 81.4723 18.3517 67.4966 18.3517 50.3219C18.3517 49.2983 18.3995 48.2848 18.4976 47.2838C18.5101 47.1505 18.5227 47.0147 18.5378 46.8789C19.1565 40.6594 21.5784 34.9681 25.2754 30.3405C25.9041 29.5533 26.5731 28.7938 27.2748 28.0695L18.3517 19.1464H44.7588V45.5535L35.627 36.4242C32.6115 39.5352 30.5996 43.6221 30.1117 48.1666C30.0337 48.8758 29.996 49.5951 29.996 50.3219C29.996 59.5493 36.2557 67.313 44.7588 69.5991C46.1571 69.9789 47.6158 70.2052 49.1172 70.2681V81.9199ZM81.3817 81.0397H54.9746V54.6326L64.1064 63.7619C67.1219 60.6509 69.1338 56.5641 69.6217 52.0195C69.6997 51.3103 69.7374 50.591 69.7374 49.8642C69.7374 40.6368 63.4777 32.8731 54.9746 30.587C53.5763 30.2072 52.1176 29.9809 50.6162 29.918V18.2662C67.6827 18.7138 81.3817 32.6895 81.3817 49.8642C81.3817 50.8878 81.3339 51.9013 81.2359 52.9023C81.2233 53.0356 81.2107 53.1714 81.1956 53.3072C80.5769 59.5267 78.155 65.218 74.458 69.8456C73.8293 70.6328 73.1603 71.3923 72.4586 72.1166L81.3817 81.0397Z" fill="currentColor"/>
</svg>
