<svg width="15" height="20" viewBox="0 0 15 20" fill="none" xmlns="http://www.w3.org/2000/svg">
<path d="M6.3 20C4.4 19.9 2.6 19.4 1.4 18.8C0.8 18.4 0.3 18 0.0999999 17.6V17.4C-9.68575e-08 17.4 0 10.1 0 10.1V2.4C0.5 1.6 1.8 0.8 3.6 0.4C4.2 0.2 5.1 0.1 5.8 0C6.5 0 8.5 0 9.2 0C11.2 0.2 12.8 0.7 13.9 1.4C14.3 1.7 14.7 2.1 14.8 2.4V2.7C14.9 2.7 14.9 10 14.9 10V17.3L14.8 17.5C14.8 17.6 14.6 17.8 14.4 18C13.5 18.9 11.7 19.6 9.3 19.9C8.8 19.9 6.7 20 6.2 19.9L6.3 20ZM9.8 13.7C9.8 13.7 9.5 13.4 9.2 13.1C8.9 12.8 8.6 12.6 8.6 12.6C8.6 12.6 8.6 12.6 8.7 12.5C8.7 12.5 9 12.3 9.1 12.2C9.5 11.8 9.6 11.3 9.6 10.7C9.6 10.1 9.4 9.6 9 9.2C8.6 8.8 8.2 8.7 7.6 8.7C6.6 8.7 5.9 9.3 5.7 10.2C5.7 10.5 5.7 11.2 5.7 11.4C5.9 12.1 6.5 12.7 7.2 12.8C7.4 12.8 7.5 12.8 7.6 13C7.6 13.1 7.9 13.3 8.1 13.5L8.4 13.8H9.1C9.5 13.8 9.8 13.8 9.8 13.8V13.7ZM7.3 11.7C7.1 11.7 7.1 11.5 7 11.3C7 11.1 7 11.1 7 10.7C7 10.3 7 10.2 7 10.1C7.1 9.8 7.3 9.7 7.6 9.7C8 9.7 8.2 9.9 8.3 10.3C8.4 10.9 8.3 11.5 7.9 11.7C7.7 11.8 7.4 11.8 7.3 11.7ZM4.1 12.7C4.9 12.6 5.3 12.1 5.3 11.5C5.3 10.9 5 10.6 4.3 10.3C3.9 10.1 3.7 10 3.7 9.8C3.7 9.6 3.9 9.5 4 9.5C4.2 9.5 4.6 9.5 4.9 9.7H5.1V9.3V8.8H4.9C4.7 8.8 4.4 8.7 4.1 8.7C3.6 8.7 3.5 8.7 3.3 8.7C2.7 8.9 2.5 9.3 2.5 9.9C2.5 10.4 2.8 10.8 3.5 11.1C3.9 11.3 4.1 11.4 4.1 11.6C4.1 11.9 3.5 12 2.9 11.6C2.7 11.6 2.6 11.4 2.6 11.4C2.6 11.4 2.6 11.6 2.6 11.9C2.6 12.4 2.6 12.4 2.6 12.5C3 12.6 3.8 12.7 4.2 12.6L4.1 12.7ZM12.8 12.2V11.7H11.4V8.6H10.2V12.6H12.8V12.1V12.2ZM8.5 4.3C9.7 4.3 10.6 4.1 11.4 3.8C12.2 3.5 12.7 3.2 12.8 2.9C12.8 2.8 12.8 2.7 12.8 2.6C12.5 1.9 11.1 1.4 9 1.2C8.1 1.2 6.4 1.2 5.5 1.2C4.2 1.4 3.1 1.7 2.6 2.1C1.6 2.9 2.6 3.7 5.1 4.1C6.1 4.3 7.5 4.3 8.6 4.3H8.5Z" fill="currentColor"/>
</svg>
