<svg width="33" height="20" viewBox="0 0 33 20" fill="none" xmlns="http://www.w3.org/2000/svg">
<path d="M8.25 6.66667C9.3225 2.25 12.1275 0 16.5 0C23.1 0 23.925 5 27.225 5.83333C29.4525 6.41667 31.35 5.58333 33 3.33333C31.9275 7.75 29.1225 10 24.75 10C18.15 10 17.325 5 14.025 4.16667C11.7975 3.58333 9.9 4.41667 8.25 6.66667ZM0 16.6667C1.0725 12.25 3.8775 10 8.25 10C14.85 10 15.675 15 18.975 15.8333C21.2025 16.4167 23.1 15.5833 24.75 13.3333C23.6775 17.75 20.8725 20 16.5 20C9.9 20 9.075 15 5.775 14.1667C3.5475 13.5833 1.65 14.4167 0 16.6667Z" fill="currentColor"/>
</svg>
