<svg width="20" height="20" viewBox="0 0 20 20" fill="none" xmlns="http://www.w3.org/2000/svg">
<path d="M17 0H3C1.3 0 0 1.3 0 3V17C0 18.7 1.3 20 3 20H17C18.7 20 20 18.7 20 17V3C20 1.3 18.7 0 17 0ZM11.6 11.1H9.1V18.2H7.1V11.1H4.6V9.5H11.6V11.1ZM18 17C17.8 17.4 17.6 17.6 17.3 17.8C17 18 16.6 18.1 16.2 18.2C15.8 18.3 15.3 18.3 14.9 18.3C14.5 18.3 14 18.3 13.5 18.2C13.1 18.2 12.7 18 12.4 17.8V15.9C12.7 16.1 13.1 16.4 13.5 16.5C13.9 16.6 14.3 16.7 14.7 16.7C15.1 16.7 15.2 16.7 15.4 16.7C15.6 16.7 15.7 16.6 15.9 16.5C16.1 16.4 16.1 16.3 16.2 16.2C16.2 16.1 16.2 16 16.2 15.8C16.2 15.6 16.2 15.5 16.1 15.3C16.1 15.2 15.9 15 15.7 14.9C15.5 14.8 15.3 14.7 15.1 14.6C14.9 14.5 14.6 14.4 14.4 14.3C13.7 14 13.2 13.7 12.9 13.2C12.6 12.8 12.4 12.3 12.4 11.7C12.4 11.1 12.4 10.9 12.7 10.5C12.9 10.1 13.1 9.9 13.4 9.7C13.7 9.5 14.1 9.3 14.5 9.2C14.9 9.1 15.4 9.1 15.8 9.1C16.2 9.1 16.7 9.1 17 9.1C17.4 9.1 17.7 9.2 18 9.4V11.2C17.9 11.1 17.7 11 17.5 10.9C17.3 10.9 17.1 10.8 17 10.7C16.9 10.6 16.6 10.7 16.5 10.6C16.3 10.6 16.2 10.6 16 10.6C15.8 10.6 15.6 10.6 15.4 10.6C15.2 10.6 15.1 10.7 14.9 10.8C14.7 10.9 14.7 11 14.6 11.1C14.5 11.2 14.5 11.3 14.5 11.5C14.5 11.7 14.5 11.8 14.6 11.9C14.6 12 14.8 12.1 14.9 12.2C15 12.3 15.2 12.4 15.4 12.5C15.6 12.6 15.8 12.7 16.1 12.8C16.5 12.9 16.8 13.1 17 13.3C17.2 13.5 17.5 13.6 17.7 13.8C17.9 14 18.1 14.2 18.2 14.5C18.3 14.8 18.4 15.1 18.4 15.4C18.4 15.9 18.3 16.3 18.1 16.6L18 17Z" fill="currentColor"/>
</svg>
