<svg width="20" height="20" viewBox="0 0 20 20" fill="none" xmlns="http://www.w3.org/2000/svg">
<path d="M19.2894 2.11471L15.1751 0.125005C14.6964 -0.107451 14.127 -0.00944277 13.7527 0.366885L5.87226 7.59502L2.43798 4.97706C2.11924 4.73141 1.66988 4.75151 1.37364 5.02292L0.273666 6.03065C-0.0906994 6.36112 -0.0906994 6.93723 0.270541 7.2677L3.24921 10L0.270541 12.7323C-0.0906994 13.0628 -0.0906994 13.6389 0.273666 13.9693L1.37364 14.9771C1.673 15.2485 2.11924 15.2686 2.43798 15.0229L5.87226 12.4018L13.7564 19.6331C14.1277 20.0094 14.697 20.1075 15.1758 19.875L19.2938 17.8822C19.7269 17.6729 20 17.2344 20 16.75V3.24557C20 2.76433 19.7231 2.32266 19.2906 2.11345L19.2894 2.11471ZM15.002 14.5656L9.01905 10.0006L15.002 5.43569V14.5656Z" fill="currentColor"/>
</svg>
