<svg width="34" height="20" viewBox="0 0 34 20" fill="none" xmlns="http://www.w3.org/2000/svg">
<path fill-rule="evenodd" clip-rule="evenodd" d="M30.5 0H3.1C1.4 0 0 1.4 0 3.1V13.5C0 15.3 1.4 16.7 3.1 16.7H16.1L22 20L20.7 16.7H30.5C32.2 16.7 33.6 15.3 33.6 13.6V3.1C33.6 1.4 32.2 0 30.5 0ZM2.5 2.4C2.1 2.4 1.8 2.6 1.6 2.8C1.4 3 1.3 3.4 1.4 3.7C2.2 8.9 3 12.3 3.7 14.1C4 14.8 4.3 15.1 4.7 15C5.3 15 6 14.2 6.8 12.6C7.2 11.7 7.9 10.4 8.8 8.6C9.5 11.2 10.6 13.1 11.8 14.5C12.2 14.9 12.5 15 12.9 15C13.2 15 13.5 14.8 13.6 14.5C13.7 14.2 13.8 13.9 13.8 13.6C13.8 12.4 13.8 10.6 14.2 8.4C14.6 6.1 15 4.4 15.5 3.4C15.6 3.2 15.7 3 15.6 2.7C15.6 2.4 15.4 2.1 15.2 1.9C14.9 1.7 14.7 1.6 14.3 1.6C13.9 1.6 13.6 1.8 13.4 2.2C12.5 3.8 11.9 6.3 11.6 9.8C11.1 8.5 10.6 6.9 10.3 5.1C10.1 4.3 9.8 3.9 9.2 3.9C8.8 3.9 8.4 4.2 8.2 4.7L5.2 10.4C4.7 8.4 4.2 6 3.8 3.1C3.8 2.4 3.3 2.1 2.6 2.1L2.5 2.4ZM29 3.4C30 3.6 30.7 4.1 31.2 5C31.6 5.7 31.9 6.6 31.9 7.7C31.9 8.8 31.5 10.4 30.8 11.6C30 13 28.9 13.7 27.6 13.7C26.3 13.7 27.1 13.7 26.9 13.7C25.9 13.5 25.2 13 24.7 12.1C24.3 11.3 24 10.4 24 9.4C24 8.4 24.4 6.7 25.1 5.5C25.9 4.1 27 3.4 28.3 3.4C29.6 3.4 28.8 3.4 29 3.4ZM28.4 10.8C28.9 10.3 29.3 9.7 29.4 8.8C29.4 8.5 29.4 8.1 29.4 7.8C29.4 7.5 29.4 7 29.2 6.5C29 6 28.7 5.7 28.4 5.6C27.9 5.6 27.4 5.8 27 6.5C26.6 7 26.4 7.6 26.3 8.1C26.3 8.4 26.3 8.8 26.3 9.1C26.3 9.4 26.3 9.9 26.5 10.3C26.7 10.8 27 11.1 27.3 11.2C27.6 11.2 28 11.2 28.4 10.8ZM22.6 5C22.1 4.1 21.4 3.6 20.4 3.4C20.1 3.4 19.9 3.4 19.7 3.4C18.4 3.4 17.3 4.1 16.5 5.5C15.8 6.7 15.4 8 15.4 9.4C15.4 10.8 15.6 11.4 16.1 12.1C16.6 13 17.3 13.5 18.3 13.7C18.6 13.7 18.8 13.7 19 13.7C20.3 13.7 21.4 13 22.2 11.6C22.9 10.4 23.3 9.1 23.3 7.7C23.3 6.3 23.1 5.7 22.6 5ZM20.9 8.8C20.7 9.7 20.4 10.4 19.9 10.8C19.5 11.2 19.1 11.3 18.8 11.2C18.5 11.2 18.2 10.8 18 10.3C17.8 9.9 17.8 9.4 17.8 9.1C17.8 8.8 17.8 8.4 17.8 8.1C17.9 7.5 18.2 7 18.5 6.5C19 5.8 19.4 5.6 19.9 5.6C20.2 5.6 20.5 6 20.7 6.5C20.9 6.9 20.9 7.4 20.9 7.8C20.9 8.2 20.9 8.5 20.9 8.8Z" fill="currentColor"/>
</svg>
