<svg width="134" height="100" viewBox="0 0 134 100" fill="none" xmlns="http://www.w3.org/2000/svg">
<path d="M63.4704 77.1556C59.0289 78.6219 54.6012 80.1567 50.1288 81.5442C44.6671 83.2366 39.147 82.6988 33.7335 81.4038C21.8208 78.5568 12.2303 72.2496 5.67968 61.7731C1.9252 55.7742 -0.115199 49.2958 0.00502702 42.0841C0.0977725 36.63 0.403489 31.3027 2.50915 26.198C4.85871 20.5041 8.12541 15.4611 12.6871 11.2472C17.2385 7.04355 22.4769 3.97733 28.3233 2.09306C34.8773 -0.017325 41.658 -0.425013 48.504 0.393789C55.2538 1.20231 61.3338 3.58677 66.3009 8.3043C69.3134 11.165 72.0889 14.2689 75.0086 17.2255C78.7871 21.0488 83.3282 23.3888 88.6079 24.5741C93.3104 25.6293 97.9511 25.6841 102.702 24.7077C97.6832 23.6731 92.4379 23.4093 87.6529 20.3157C100.431 16.8657 112.368 16.876 123.102 25.1326C128.536 29.3156 131.81 34.965 133.366 41.6011C135.915 52.4682 130.632 65.1271 121.062 71.4103C115.542 75.0349 109.52 76.9809 102.932 77.2104C102.09 77.2412 101.644 77.4468 101.379 78.3752C99.5243 84.9154 97.5939 91.4315 95.6703 97.9511C95.447 98.7048 95.1069 99.4208 94.8836 99.9998C91.191 98.7459 87.6564 97.307 83.9912 96.358C78.3784 94.9054 72.6419 94.2339 66.8333 95.1144C62.3781 95.7927 57.9332 96.5464 53.4711 97.2042C47.58 98.0744 43.3893 92.2983 42.5615 87.9405C42.4859 87.5431 43.1214 86.6866 43.5713 86.5632C49.3662 84.9873 54.8622 82.7159 60.0182 79.6531C61.2686 78.9097 62.3849 77.9504 63.4738 77.1556H63.4704Z" fill="currentColor"/>
</svg>
