<svg width="90" height="100" viewBox="0 0 90 100" fill="none" xmlns="http://www.w3.org/2000/svg">
<path d="M80.9238 18.8613V42.1387H89.1895V83.9795H80.9238V100H8.2666V83.9795H0V42.1387H8.2666V0H65.04L80.9238 18.8613ZM12.3564 95.9102H76.833V83.9795H12.3564V95.9102ZM58.1494 54.1846V71.8359H70.6689V69.0225H61.667V54.1846H58.1494ZM18.9834 54.1836L24.6338 62.5293L18.4141 71.8359H22.8643L26.8965 65.8721L30.9336 71.8359H34.7998L28.8848 62.9326L34.7998 54.1836H30.2109L26.6309 59.54L23.0732 54.1836H18.9834ZM37.04 54.1846V71.8359H40.3486L40.4102 58.0615L43.8701 71.8359H47.5928L51.0244 57.6523L51.1104 71.8359H54.2148V54.1846H48.8359L45.7148 66.6299L42.2139 54.1846H37.04ZM12.3564 42.1387H76.833V23.4453C75.3907 23.7132 74.0244 23.8477 72.7432 23.8477C71.6462 23.8477 70.6114 23.7491 69.6436 23.5527C67.4065 23.098 65.493 22.1192 63.958 20.6436C62.5048 19.2466 61.4004 17.4103 60.6748 15.1865C60.1229 13.4939 59.7878 11.5695 59.6797 9.4668C59.564 7.21769 59.7323 5.247 59.874 4.08984H12.3564V42.1387ZM66.2275 32.9609C67.0722 32.9609 67.7568 33.6461 67.7568 34.4912C67.7568 34.9133 67.5862 35.2956 67.3096 35.5723C67.0328 35.849 66.6499 36.0205 66.2275 36.0205H22.9619C22.1174 36.0204 21.4328 35.3357 21.4326 34.4912C21.4326 34.0685 21.6041 33.686 21.8809 33.4092C22.1576 33.1325 22.5397 32.961 22.9619 32.9609H66.2275ZM66.3301 25.4111C67.1183 25.4112 67.7568 26.0506 67.7568 26.8389V26.8428C67.7566 27.6313 67.1182 28.2704 66.3301 28.2705H22.8604C22.0722 28.2705 21.4328 27.6313 21.4326 26.8428V26.8389C21.4326 26.0506 22.072 25.4111 22.8604 25.4111H66.3301ZM53.9287 17.5547C54.7464 17.5548 55.4092 18.2168 55.4092 19.0332C55.4091 19.4411 55.2434 19.8107 54.9756 20.0781C54.7077 20.346 54.3375 20.5117 53.9287 20.5117H22.9131C22.0956 20.5116 21.4328 19.8494 21.4326 19.0332C21.4326 18.6252 21.5983 18.2548 21.8662 17.9873C22.1341 17.7194 22.5043 17.5548 22.9131 17.5547H53.9287Z" fill="currentColor"/>
</svg>
